<?xml version="1.0" standalone="no"?>
<!DOCTYPE svg PUBLIC "-//W3C//DTD SVG 1.1//EN" "http://www.w3.org/Graphics/SVG/1.1/DTD/svg11.dtd" >
<!--
2013-9-30: Created.
-->
<svg>
<metadata>
Created by iconfont
</metadata>
<defs>

<font id="iconfont" horiz-adv-x="1024" >
  <font-face
    font-family="iconfont"
    font-weight="500"
    font-stretch="normal"
    units-per-em="1024"
    ascent="896"
    descent="-128"
  />
    <missing-glyph />
    
    <glyph glyph-name="x" unicode="x" horiz-adv-x="1001"
d="M281 543q-27 -1 -53 -1h-83q-18 0 -36.5 -6t-32.5 -18.5t-23 -32t-9 -45.5v-76h912v41q0 16 -0.5 30t-0.5 18q0 13 -5 29t-17 29.5t-31.5 22.5t-49.5 9h-133v-97h-438v97zM955 310v-52q0 -23 0.5 -52t0.5 -58t-10.5 -47.5t-26 -30t-33 -16t-31.5 -4.5q-14 -1 -29.5 -0.5
t-29.5 0.5h-32l-45 128h-439l-44 -128h-29h-34q-20 0 -45 1q-25 0 -41 9.5t-25.5 23t-13.5 29.5t-4 30v167h911zM163 247q-12 0 -21 -8.5t-9 -21.5t9 -21.5t21 -8.5q13 0 22 8.5t9 21.5t-9 21.5t-22 8.5zM316 123q-8 -26 -14 -48q-5 -19 -10.5 -37t-7.5 -25t-3 -15t1 -14.5
t9.5 -10.5t21.5 -4h37h67h81h80h64h36q23 0 34 12t2 38q-5 13 -9.5 30.5t-9.5 34.5q-5 19 -11 39h-368zM336 498v228q0 11 2.5 23t10 21.5t20.5 15.5t34 6h188q31 0 51.5 -14.5t20.5 -52.5v-227h-327z" />
    

    
    <glyph glyph-name="import" unicode="&#58891;" d="M830.541 96.893v-127.482h-638.945v127.482h-129.018v-256.499h896.98v256.499zM637.013 612.996h-253.427v-325.671h-129.498l256.015-256.015 256.016 256.016h-129.107z"  horiz-adv-x="1024" />

    
    <glyph glyph-name="chahao" unicode="&#58887;" d="M843.064626 589.193495c24.230867-24.230867 24.230867-63.882959 0.001023-88.11792l-533.725814-533.725814c-24.233937-24.229844-63.886029-24.229844-88.11792 0l-40.879036 40.882106c-24.232914 24.230867-24.232914 63.883983 0 88.122013l533.718651 533.718651c24.240077 24.232914 63.893192 24.232914 88.122013 0.001023L843.064626 589.193495zM221.219869 630.074577c24.231891 24.232914 63.885006 24.232914 88.11792 0l533.727861-533.719674c24.229844-24.239054 24.229844-63.892169-0.001023-88.12099l-40.882106-40.880059c-24.228821-24.230867-63.883983-24.228821-88.122013 0.001023L180.340833 501.076598c-24.231891 24.234961-24.231891 63.887053 0 88.118943L221.219869 630.074577z"  horiz-adv-x="1024" />

    
    <glyph glyph-name="bianji" unicode="&#58907;" d="M901.959991-89.341403c0-31.908734-26.106588-58.014298-58.014298-58.014298L181.34265-147.355701c-31.907711 0-58.014298 26.106588-58.014298 58.014298L123.328351 689.964596c0 31.907711 26.106588 58.014298 58.014298 58.014298l662.60202 0c31.908734 0 58.014298-26.106588 58.014298-58.014298L901.958968-89.341403zM862.822622 651.223247c0 31.907711-26.106588 58.014298-58.014298 58.014298L220.29787 709.237545c-31.907711 0-58.014298-26.106588-58.014298-58.014298L162.283572-50.466c0-31.908734 26.106588-58.014298 58.014298-58.014298l584.509431 0c31.908734 0 58.014298 26.106588 58.014298 58.014298L862.821599 651.223247zM766.062881 574.332019c0 9.572006-7.831362 17.404392-17.404392 17.404392L296.147372 591.736411c-9.572006 0-17.404392-7.831362-17.404392-17.404392l0-2.90005c0-9.572006 7.831362-17.404392 17.404392-17.404392l452.511117 0c9.572006 0 17.404392 7.832386 17.404392 17.404392L766.062881 574.332019zM766.23275 437.891534c0 9.572006-7.831362 17.404392-17.404392 17.404392L296.317241 455.295925c-9.572006 0-17.404392-7.831362-17.404392-17.404392l0-2.901073c0-9.572006 7.831362-17.404392 17.404392-17.404392L748.828358 417.586069c9.572006 0 17.404392 7.831362 17.404392 17.404392L766.23275 437.891534zM766.289032 321.148669c0 9.572006-7.831362 17.404392-17.404392 17.404392L296.374546 338.553061c-9.572006 0-17.404392-7.831362-17.404392-17.404392l0-2.901073c0-9.572006 7.831362-17.404392 17.404392-17.404392l452.511117 0c9.572006 0 17.404392 7.831362 17.404392 17.404392L766.290055 321.148669zM432.802752 204.981926c0 9.572006-7.831362 17.404392-17.404392 17.404392L296.469714 222.386318c-9.572006 0-17.404392-7.831362-17.404392-17.404392l0-2.90005c0-9.572006 7.831362-17.404392 17.404392-17.404392l118.92967 0c9.572006 0 17.404392 7.831362 17.404392 17.404392L432.803775 204.981926zM746.468614 226.745602l-15.632025 15.632025c-12.674671 12.674671-32.133861 13.766538-43.462884 2.438539L512.446673 69.890158l61.533448-61.533448 174.927031 174.927031C760.236176 194.612765 759.143285 214.070932 746.468614 226.745602zM493.153258 50.400269l0-61.570287 61.300135 0 0.135076 0.135076L493.153258 50.400269z"  horiz-adv-x="1024" />

    
    <glyph glyph-name="dingdan" unicode="&#58932;" d="M907.875923 526.496742 758.021841 674.207554c-6.497144 6.395425-15.260767 10.011476-24.388287 10.011476L517.88253 684.21903c0.184814 1.455589 0.462751 2.948428 0.462751 4.482814 0 68.00153-57.356815 123.29817-127.881271 123.29817-70.502966 0-127.859781-55.296641-127.859781-123.29817l0-4.482814-122.113355 0c-19.177678 0-34.724978-15.585982-34.724978-34.770823L105.765896-177.227758c0-19.202033 15.5473-34.772256 34.724978-34.772256l742.99533 0c19.17911 0 34.747901 15.56879 34.747901 34.772256l0 679.010998C918.235537 511.072651 914.496276 519.993867 907.875923 526.496742L907.875923 526.496742zM334.557053 688.701844c0 28.345313 25.0774 51.362537 55.908389 51.362537 30.829557 0 55.947071-23.017225 55.947071-51.362537 0-1.534386 0.244986-3.027225 0.441261-4.482814l-112.296722 0L334.557053 688.701844 334.557053 688.701844 334.557053 688.701844zM848.716813-142.50278l-673.453683 0 0 757.18876 87.342532 0 0-250.639326c0-67.955684 57.356815-123.275248 127.859781-123.275248 70.524456 0 127.888435 55.319563 127.888435 123.275248l0 144.196481c0 19.866791-16.113204 35.939879-36.001484 35.939879-19.866791 0-35.938447-16.073089-35.938447-35.939879l0-144.196481c0-28.305198-25.117514-51.318125-55.947071-51.318125-30.825259 0-55.902659 23.012927-55.902659 51.318125l0 250.639326 378.235497 0 0-113.265205c0-11.505747 9.329526-20.835273 20.835273-20.835273l115.088989 0L848.716813-142.50278 848.716813-142.50278 848.716813-142.50278zM848.716813-142.50278"  horiz-adv-x="1024" />

    
    <glyph glyph-name="88" unicode="&#58905;" d="M917.824 582.912c-22.24 30.304-53.184 65.696-87.2 99.712s-69.408 64.96-99.712 87.168C679.328 807.616 654.336 812 640 812L144 812C99.904 812 64 776.128 64 732l0-864C64-176.096 99.904-212 144-212l736 0c44.096 0 80 35.904 80 80L960 492C960 506.336 955.616 531.36 917.824 582.912zM785.376 637.376C816.064 606.688 840.16 578.976 857.952 556L704 556 704 709.952C726.976 692.16 754.688 668.064 785.376 637.376zM896-132c0-8.672-7.328-16-16-16l-736 0C135.328-148 128-140.672 128-132l0 864C128 740.672 135.328 748 144 748c0 0 495.968 0 496 0l0-224c0-17.664 14.336-32 32-32l224 0L896-132zM234.144 439.68l0-475.936 543.968 0L778.112 439.68 234.144 439.68zM438.144 133.76l0 102.016 135.968 0 0-102.016L438.144 133.76zM574.112 99.744l0-102.016-135.968 0 0 102.016L574.112 99.744zM574.112 371.68l0-101.984-135.968 0L438.144 371.68 574.112 371.68zM404.16 371.68l0-101.984L268.16 269.696 268.16 371.68 404.16 371.68zM268.16 235.744l136 0 0-102.016L268.16 133.728 268.16 235.744zM608.128 235.744l136 0 0-102.016-136 0L608.128 235.744zM608.128 269.728 608.128 371.68l136 0 0-101.984L608.128 269.696zM268.16 99.744l136 0 0-102.016L268.16-2.272 268.16 99.744zM608.128-2.24l0 102.016 136 0 0-102.016L608.128-2.24z"  horiz-adv-x="1024" />

    
    <glyph glyph-name="duihao" unicode="&#58915;" d="M127.232 315.808l224.512-178.88 559.04 515.008c0 0 37.504 34.24 70.272 7.488 9.728-8 20.992-30.784-4.352-66.496l-583.68-683.712c0 0-44.736-61.248-97.856 0.64l-251.904 340.096c0 0-29.888 46.08 7.488 73.664C63.424 332.832 92.096 347.296 127.232 315.808z"  horiz-adv-x="1024" />

    
    <glyph glyph-name="tianjia" unicode="&#58953;" d="M960 268C960 533.152 745.152 748 480 748 214.912 748 0 533.152 0 268 0 2.912 214.912-212 480-212 745.152-212 960 2.912 960 268zM64 268C64 497.376 250.624 684 480 684S896 497.376 896 268 709.376-148 480-148 64 38.624 64 268zM704 300 512 300 512 492c0 17.664-14.336 32-32 32S448 509.664 448 492l0-192L256 300C238.336 300 224 285.664 224 268S238.336 236 256 236l192 0 0-192c0-17.664 14.336-32 32-32S512 26.336 512 44L512 236l192 0c17.664 0 32 14.336 32 32S721.664 300 704 300z"  horiz-adv-x="1024" />

    
    <glyph glyph-name="hulve" unicode="&#59028;" d="M512 747.419146c-247.101841 0-447.419146-200.317305-447.419146-447.419146s200.317305-447.419146 447.419146-447.419146S959.419146 52.898159 959.419146 300 759.101841 747.419146 512 747.419146zM512-72.848777c-205.92093 0-372.848777 166.927847-372.848777 372.848777 0 205.916836 166.927847 372.848777 372.848777 372.848777 205.916836 0 372.848777-166.93194 372.848777-372.848777C884.848777 94.07907 717.916836-72.848777 512-72.848777zM288.290939 374.568323c-41.183981 0-74.569346-33.385365-74.569346-74.569346 0-41.182958 33.385365-74.569346 74.569346-74.569346s74.569346 33.386388 74.569346 74.569346C362.860285 341.182958 329.473897 374.568323 288.290939 374.568323zM512 374.568323c-41.183981 0-74.569346-33.385365-74.569346-74.569346 0-41.182958 33.385365-74.569346 74.569346-74.569346s74.569346 33.386388 74.569346 74.569346C586.569346 341.182958 553.183981 374.568323 512 374.568323zM735.709061 374.568323c-41.183981 0-74.569346-33.385365-74.569346-74.569346 0-41.182958 33.385365-74.569346 74.569346-74.569346s74.571393 33.386388 74.571393 74.569346C810.280454 341.182958 776.893043 374.568323 735.709061 374.568323z"  horiz-adv-x="1024" />

    
    <glyph glyph-name="qingkong" unicode="&#58992;" d="M864.711111 561.688889 159.288889 561.688889c-12.583822 0-22.755556 10.171733-22.755556 22.755556 0 12.561067 10.171733 22.755556 22.755556 22.755556l705.422222 0c12.583822 0 22.755556-10.194489 22.755556-22.755556C887.466667 571.860622 877.294933 561.688889 864.711111 561.688889zM637.155556 652.711111 386.844444 652.711111c-12.583822 0-22.755556 10.171733-22.755556 22.755556 0 12.561067 10.171733 22.755556 22.755556 22.755556l250.311111 0c12.583822 0 22.755556-10.194489 22.755556-22.755556C659.911111 662.882844 649.739378 652.711111 637.155556 652.711111zM409.6 61.066667 409.6 447.911111c0 12.561067 10.171733 22.755556 22.755556 22.755556s22.755556-10.194489 22.755556-22.755556l0-386.844444c0-12.583822-10.171733-22.755556-22.755556-22.755556S409.6 48.482844 409.6 61.066667zM568.888889 61.066667 568.888889 447.911111c0 12.561067 10.171733 22.755556 22.755556 22.755556s22.755556-10.194489 22.755556-22.755556l0-386.844444c0-12.583822-10.171733-22.755556-22.755556-22.755556S568.888889 48.482844 568.888889 61.066667zM250.311111 493.422222c12.583822 0 22.755556-10.194489 22.755556-22.755556l0-26.942578L273.066667 356.888889l0-364.088889c0-25.122133 20.388978-45.511111 45.511111-45.511111l386.844444 0c25.122133 0 45.511111 20.388978 45.511111 45.511111L750.933333 356.888889l0 86.8352L750.933333 470.666667c0 12.561067 10.171733 22.755556 22.755556 22.755556s22.755556-10.194489 22.755556-22.755556l0-91.022222 0-22.755556 0-386.844444c0-37.705956-30.560711-68.266667-68.266667-68.266667L295.822222-98.222222c-37.705956 0-68.266667 30.560711-68.266667 68.266667L227.555556 315.132444 227.555556 356.888889l0 22.755556 0 91.022222C227.555556 483.227733 237.727289 493.422222 250.311111 493.422222z"  horiz-adv-x="1024" />

    
    <glyph glyph-name="iconfonticontoufangjinxingzhong" unicode="&#58960;" d="M512.017315 889.163098C233.449026 889.163098 6.823709 662.537782 6.823709 383.96949300000006c0-278.563342 226.625316-505.188658 505.193605-505.188658 278.563342 0 505.193605 226.625316 505.193605 505.188658C1017.21092 662.537782 790.579008 889.163098 512.017315 889.163098zM512.017315-61.172830999999974c-245.460601 0-445.147271 199.696565-445.147271 445.142324 0 245.455654 199.68667 445.147271 445.147271 445.147271 245.450707 0 445.137377-199.691617 445.137377-445.147271C957.153043 138.523733 757.466373-61.172830999999974 512.017315-61.172830999999974zM694.28852 406.543141L449.131342 594.9025859999999c-10.059117 10.600001-27.768111 12.120412-39.271783 3.748258-1.390137-0.979527-2.739048-2.076136-4.066522-3.400311-6.815464-6.850094-9.937089-16.495303-8.472745-25.998696L397.320291 198.54038400000002c-1.464344-9.518234 1.657281-19.173337 8.472745-26.003643 5.699067-5.72875 13.292876-8.881706 21.361607-8.881706 7.816429 0 15.16783 2.950125 20.795988 8.321034l246.339537 189.27301c0.389172 0.303423 0.75196 0.626634 1.101556 0.969633 5.804605 5.835937 8.927879 13.591352 8.815744 21.518266 0.110485 8.255072-3.016086 16.015434-8.830586 21.846424C695.030586 405.926402 694.677692 406.249613 694.28852 406.543141zM457.361678 255.05943100000002L457.361678 512.731141l167.66075-128.832557L457.361678 255.05943100000002z"  horiz-adv-x="1024" />

    
    <glyph glyph-name="shape2" unicode="&#58894;" d="M511.952178-212C362.644203-212 84.953229 16.524527 84.953229 232.617853L84.953229 663.090463 127.410866 663.79405C128.315982 663.79405 223.093052 665.807964 320.888732 705.51453 421.196808 746.275892 485.890437 793.077833 486.496957 793.529388L511.849536 812 537.403899 793.529388C538.011588 793.077833 602.701717 746.274724 703.009793 705.51453 800.808971 665.807964 895.582543 663.79405 896.591467 663.79405L938.847319 663.090463 939.046771 232.616687C939.046769 16.525693 661.359296-212 511.952178-212L511.952178-212ZM171.178354 580.558447 171.178354 232.617853C171.178354 65.54224 413.049598-125.742358 511.953344-125.742358 610.853592-125.742358 852.724835 65.542241 852.724835 232.617853L852.724835 580.558447C810.466651 585.14168 741.850463 596.662767 670.613405 625.600838 597.573114 655.292667 542.134762 687.598154 511.953344 706.822524 481.86757 687.598152 426.328909 655.292666 353.386594 625.600838 282.050394 596.662767 213.434206 585.141678 171.178354 580.558447L171.178354 580.558447ZM638.414514 325.798207 610.91811 325.798207 574.182069 325.798207 452.214622 325.798207 413.082293 325.798207 385.585891 325.798207C379.558157 325.798207 374.592428 320.86691 374.592428 314.75165L374.592428 135.438942C374.592428 129.372947 379.558157 124.391982 385.585891 124.391982L638.414109 124.391982C644.441843 124.391982 649.407572 129.372947 649.407572 135.438942L649.407572 314.75165C649.407977 320.86691 644.442248 325.798207 638.414514 325.798207ZM452.214622 379.0596C452.214622 378.96107 452.239301 378.862541 452.239301 378.764013 452.486495 412.052282 479.83442 439.126762 513.185803 439.126762 546.537592 439.126762 573.885113 412.052282 574.132711 378.764013 574.132711 378.862541 574.182068 378.961475 574.182068 379.0596L574.182068 325.79861 610.91811 325.79861 610.91811 379.0596 610.893432 379.0596C610.498164 433.701609 566.375427 477.888641 512.000405 477.888641 457.625381 477.888641 413.502645 433.701609 413.107377 379.0596L413.082698 379.0596 413.082698 325.79861 452.215027 325.79861 452.215027 379.0596 452.214622 379.0596Z"  horiz-adv-x="1024" />

    
    <glyph glyph-name="wenjian" unicode="&#58893;" d="M292.280271 489.019588 534.541851 489.019588 534.541851 457.359685 292.280271 457.359685 292.280271 489.019588 292.280271 489.019588ZM292.280271 343.004114 534.541851 343.004114 534.541851 311.34421 292.280271 311.34421 292.280271 343.004114 292.280271 343.004114ZM292.280271 197.020299 731.751389 197.020299 731.751389 165.360396 292.280271 165.360396 292.280271 197.020299 292.280271 197.020299ZM292.280271 51.004825 731.751389 51.004825 731.751389 19.344921 292.280271 19.344921 292.280271 51.004825 292.280271 51.004825ZM904.804421 527.961269C904.709442 528.626127 904.582802 529.227665 904.392843 529.892523 903.696325 532.551955 902.524908 535.116407 900.561994 537.110981L635.568603 802.199352C633.574029 804.193926 631.041237 805.333683 628.350145 806.030201 627.685287 806.22016 627.115409 806.3468 626.387231 806.441779 625.754033 806.473439 625.089175 806.790038 624.392657 806.790038L233.58281 806.790038C170.294663 806.790038 118.784 755.311035 118.784 692.022889L118.784-91.55972C118.784-154.847867 170.294663-206.32687 233.58281-206.32687L790.44885-206.32687C853.736997-206.32687 905.216-154.847867 905.216-91.55972L905.216 525.871716C905.216 526.599893 904.899401 527.264751 904.804421 527.961269L904.804421 527.961269ZM839.173442 541.82983 717.510308 541.82983C673.87191 541.82983 638.370504 577.331235 638.370504 620.939497L638.370504 742.693041 839.173442 541.82983 839.173442 541.82983ZM780.587681-157.847643 243.443979-157.847643C199.224064-157.847643 163.280114-121.873154 163.280114-77.683778L163.280114 678.146947C163.249575 722.336323 199.224064 758.310811 243.443979 758.310811L605.143337 758.310811 605.143337 613.344005C605.143337 552.297314 654.829663 502.641526 715.876355 502.641526L860.751546 502.641526 860.751546-77.653239C860.751546-121.873154 824.777056-157.847643 780.587681-157.847643L780.587681-157.847643Z"  horiz-adv-x="1024" />

    
    <glyph glyph-name="xiangxi" unicode="&#58919;" d="M790.186113 416.670976 226.553715 416.670976c-7.530181 0-13.621466-6.104665-13.621466-13.621466l0-27.246581c0-7.526532 6.091285-13.621466 13.621466-13.621466l563.632399 0c7.530181 0 13.626331 6.094934 13.626331 13.621466l0 27.246581C803.807579 410.566312 797.716294 416.670976 790.186113 416.670976L790.186113 416.670976zM790.186113 252.060321 226.553715 252.060321c-7.530181 0-13.621466-6.105881-13.621466-13.621466l0-27.241716c0-7.531397 6.091285-13.626331 13.621466-13.626331l563.632399 0c7.530181 0 13.626331 6.094934 13.626331 13.626331l0 27.241716C803.807579 245.955657 797.716294 252.060321 790.186113 252.060321L790.186113 252.060321zM790.186113 581.281631 226.553715 581.281631c-7.530181 0-13.621466-6.104665-13.621466-13.626331l0-27.242932c0-7.531397 6.091285-13.621466 13.621466-13.621466l563.632399 0c7.530181 0 13.626331 6.090069 13.626331 13.621466L803.812444 567.655299C803.807579 575.176966 797.716294 581.281631 790.186113 581.281631L790.186113 581.281631zM835.194483 735.506206 181.551427 735.506206c-60.184281 0-108.979026-48.794745-108.979026-108.977809l0-653.896048c0-60.181848 48.794745-108.979026 108.979026-108.979026l653.643056 0c60.183064 0 108.979026 48.795961 108.979026 108.979026L944.173508 626.528397C944.172292 686.711461 895.377547 735.506206 835.194483 735.506206L835.194483 735.506206zM889.681563-27.367651c0-30.06599-24.397981-54.491946-54.48708-54.491946L181.551427-81.859597c-30.090316 0-54.48708 24.425956-54.48708 54.491946L127.064347 626.528397c0 30.0891 24.396764 54.485864 54.48708 54.485864l653.643056 0c30.0891 0 54.48708-24.396764 54.48708-54.485864L889.681563-27.367651 889.681563-27.367651zM790.186113 87.450883 226.553715 87.450883c-7.530181 0-13.621466-6.097367-13.621466-13.622682l0-27.247797c0-7.502206 6.091285-13.62025 13.621466-13.62025l563.632399 0c7.530181 0 13.626331 6.118044 13.626331 13.62025l0 27.247797C803.807579 81.353516 797.716294 87.450883 790.186113 87.450883L790.186113 87.450883zM791.014421 183.663509"  horiz-adv-x="1024" />

    
    <glyph glyph-name="shouye" unicode="&#58942;" d="M592.795141-130.076152 592.795141 125.614298 432.057273 125.614298l0-256.372995c-5.02341-0.258896-9.030677-0.647753-13.038968-0.647753-75.894528 0-151.827941-0.040932-227.727585 0-26.079982 0-43.617403 16.727986-43.733037 44.430932-0.527003 105.19997-0.366344 210.486922 0.116657 315.686892 0 5.547343 4.213975 12.641925 8.465812 16.428158 68.686359 60.686151 137.733944 120.984469 206.664873 181.329858 45.884027 40.168862 91.729168 80.340793 137.612171 120.467699 3.565199 3.097548 7.213285 6.106068 11.703553 9.939373 27.377534-23.916712 54.633295-47.699372 81.849146-71.526033 89.782839-78.580706 179.449022-157.332305 269.476431-235.612159 9.679453-8.383948 13.809517-16.898879 13.727653-30.446429-0.565888-99.871615-0.406253-199.778023-0.200568-299.602565 0.037862-18.152429-4.213975-33.936927-19.321044-43.959188-5.467525-3.64911-12.392238-6.79373-18.668175-6.835685-80.551594-0.429789-161.103188-0.210801-241.609757-0.169869C596.199681-131.277514 594.978876-130.717765 592.795141-130.076152L592.795141-130.076152zM713.76426 577.81433c0 42.192961-0.039909 81.158415 0 120.084982 0.037862 24.858154 5.627161 30.79333 28.995381 30.835286 36.287461 0 72.573899 0.040932 108.86136-0.041956 18.711154-0.047072 25.186635-7.052626 25.230638-28.085662 0.083911-83.307358 0.282433-166.663834-0.24457-249.971192-0.081864-12.859889 3.321652-21.1149 12.834306-29.287023 39.774889-33.978882 78.772065-68.901253 117.974925-103.609753 19.23304-17.033955 19.721157-25.329898 3.521197-45.591361-9.797134-12.300141-19.393699-24.816199-29.278837-37.075407-12.147668-15.178701-22.193465-16.126282-36.730553-3.221368-139.192156 123.352399-278.385335 246.787686-417.621493 370.181017-4.818749 4.256954-9.758248 8.432043-15.391549 13.33675-31.302937-27.702945-62.36642-55.099922-93.348038-82.579787C305.578674 432.658346 192.588273 332.493042 79.596849 232.36867c-15.307637-13.589506-24.821315-12.777001-37.699624 3.225461-10.656711 13.289678-21.262256 26.66736-31.751145 40.079834-12.231579 15.656585-11.743462 25.765827 3.037173 38.9675 63.054081 56.042387 126.274962 111.870904 189.450816 167.782308 84.193541 74.5366 168.470993 148.983149 252.626671 223.647663 38.187741 33.849946 75.366502 33.849946 113.639177-0.257873 45.235251-40.297798 90.597391-80.429821 135.910413-120.597659C706.96132 583.318694 709.227943 581.558607 713.76426 577.81433L713.76426 577.81433zM713.76426 577.81433"  horiz-adv-x="1024" />

    
    <glyph glyph-name="select" unicode="&#58888;" d="M511.707-172.431c-60.554 0-119.319 11.869-174.661 35.276-53.434 22.602-101.414 54.947-142.607 96.141-41.193 41.193-73.54 89.174-96.141 142.607-23.408 55.342-35.276 114.107-35.276 174.661s11.869 119.32 35.276 174.661c22.601 53.434 54.947 101.415 96.141 142.608 41.193 41.193 89.174 73.54 142.607 96.141 55.342 23.408 114.106 35.277 174.661 35.277 60.554 0 119.32-11.869 174.662-35.276 53.434-22.601 101.414-54.947 142.607-96.141 41.193-41.193 73.539-89.174 96.141-142.608 23.407-55.342 35.276-114.107 35.276-174.661 0-60.995-12.037-120.154-35.775-175.835-22.919-53.759-55.697-101.94-97.421-143.202-15.881-15.707-41.492-15.567-57.2 0.319-15.708 15.883-15.566 41.492 0.319 57.2 70.408 69.629 109.182 162.504 109.182 261.518 0 202.801-164.99 367.792-367.791 367.792s-367.792-164.991-367.792-367.793c0-202.8 164.99-367.791 367.791-367.791 47.202 0 93.141 8.805 136.541 26.168 20.742 8.299 44.279-1.789 52.578-22.529 8.297-20.74-1.789-44.279-22.529-52.578-52.999-21.203-109.049-31.955-166.59-31.955zM693.608 381.82l-217.635-217.991-134.069 135.283c-15.869 16.003-41.631 16.003-57.501 0-15.87-16.005-15.87-41.954 0-57.958l159.245-158.933c0.008-0.006 0.021-0.012 0.030-0.018 18.279-18.253 47.895-18.246 66.163 0.023 1.030 1.029 1.992 2.101 2.907 3.198 0.465 0.205 0.77 0.412 0.874 0.622l236.592 238.727c15.871 16.005 16.78 41.042 0.893 57.046-15.87 16.006-41.63 16.006-57.5 0.001z"  horiz-adv-x="1024" />

    
    <glyph glyph-name="xitongrili-copy" unicode="&#59967;" d="M142.222 538.084v113.863c0 15.588 12.772 28.359 28.188 28.359h85.589v-25.884c0-39.396 31.829-71.31 71.111-71.31 39.538 0 71.111 31.915 71.111 71.31v26.937c1.735-0.341 3.356-1.052 5.177-1.052h222.379v-25.884c0-39.396 31.829-71.31 71.111-71.31 39.538 0 71.111 31.915 71.111 71.31v25.884h85.589c15.502 0 28.188-12.715 28.188-28.16v-114.062h-739.556zM312.889 767.801c0 8.135 6.258 14.421 14.222 14.421 7.822 0 14.222-6.4 14.222-14.421v-113.38c0-8.135-6.258-14.421-14.222-14.421-7.822 0-14.222 6.4-14.222 14.421v113.38zM682.667 767.801c0 8.135 6.258 14.421 14.222 14.421 7.822 0 14.222-6.4 14.222-14.421v-113.38c0-8.135-6.258-14.421-14.222-14.421-7.822 0-14.222 6.4-14.222 14.421v113.38zM910.222 410.084c15.701 0 28.444 12.743 28.444 28.444v213.618c0 46.848-38.144 85.049-85.077 85.049h-85.589v30.606c0 39.396-31.829 71.31-71.111 71.31-39.538 0-71.111-31.915-71.111-71.31v-30.606h-222.379c-1.82 0-3.442-0.711-5.177-1.052v31.659c0 39.396-31.829 71.31-71.111 71.31-39.538 0-71.111-31.915-71.111-71.31v-30.606h-85.589c-46.82 0-85.077-38.258-85.077-85.248v-625.948c0-47.047 38.087-85.248 85.077-85.248h683.179c46.82 0 85.077 38.286 85.077 85.276v227.612c0 15.701-12.743 28.444-28.444 28.444-15.701 0-28.444-12.743-28.444-28.444v-227.612c0-15.588-12.772-28.388-28.188-28.388h-683.179c-15.531 0-28.188 12.686-28.188 28.359v455.196h739.556v-42.667c0-15.701 12.743-28.444 28.444-28.444v0z"  horiz-adv-x="1024" />

    
    <glyph glyph-name="shangchengicon13" unicode="&#58895;" d="M682.568729 832.517332 212.848764 832.517332c-61.739062 0-100.922029-37.020318-100.922029-94.642399l0-703.513675c0-57.589569 50.0504-104.334584 111.802708-104.334584l600.138797 0c61.737858 0 91.604334 47.219449 91.604334 104.813835L915.472574 587.617768 682.568729 832.517332 682.568729 832.517332zM660.566542 760.571914l174.737489-183.306204L695.500072 577.26571c-30.874348 0-34.934734 16.494416-34.934734 45.2892L660.565338 760.571914 660.566542 760.571914zM855.951552 24.486043c0-28.794785-4.060386-34.934734-34.934734-34.934734L206.386103-10.448691c-30.879164 0-34.93955 6.139949-34.93955 34.934734L171.446553 737.715986c0 28.828501 4.060386 34.93955 34.93955 34.93955l394.6546 0L601.040703 587.617768c0-57.594386 8.141243-69.874284 69.874284-69.874284l185.036564 0L855.951552 24.486043 855.951552 24.486043zM695.565096 203.309205 331.83903 203.309205c-15.78156 0-20.643909-5.523426-20.643909-23.267746l0-14.988027c0-17.737096 4.861144-23.335179 20.643909-23.335179l363.72727 0c15.777948 0 20.643909 5.596879 20.643909 23.335179l0 14.988027C716.209004 197.785779 711.343043 203.309205 695.565096 203.309205L695.565096 203.309205zM311.195121 354.724761l0-14.982006c0-17.744321 4.692564-23.341199 19.961157-23.341199l365.090365 0c15.268593 0 19.962361 5.596879 19.962361 23.341199l0 14.982006c0 17.744321-4.692564 23.271359-19.962361 23.271359L331.151462 377.996119C320.253925 377.996119 311.195121 372.469081 311.195121 354.724761L311.195121 354.724761zM331.581342 491.08847l179.202469 0c15.591305 0 20.382609 5.596879 20.382609 23.335179l0 14.988027c0 17.7383-4.791304 23.265338-20.382609 23.265338L331.581342 552.677013c-15.594917 0-20.386221-5.527038-20.386221-23.265338l0-14.988027C311.195121 496.685348 315.986425 491.08847 331.581342 491.08847L331.581342 491.08847zM331.581342 491.08847"  horiz-adv-x="1024" />

    
    <glyph glyph-name="shangpinxinxi01" unicode="&#59017;" d="M304.738539 578.34836m-33.264615 0a32.507 32.507 0 1 0 66.529229 0 32.507 32.507 0 1 0-66.529229 0ZM387.122875 595.744565l364.297007 0 0-34.792411-364.297007 0 0 34.792411ZM303.211766 403.392676m-33.264615 0a32.507 32.507 0 1 0 66.529229 0 32.507 32.507 0 1 0-66.529229 0ZM385.595079 420.788881l364.297007 0 0-34.792411-364.297007 0 0 34.792411ZM304.268842 228.435968m-33.264615 0a32.507 32.507 0 1 0 66.529229 0 32.507 32.507 0 1 0-66.529229 0ZM386.652154 245.832174l364.297007 0 0-34.792411-364.297007 0 0 34.792411ZM413.33691 701.14715l196.577121 0c9.579169 0 17.34504 7.822153 17.34504 17.47193l0 32.197306c0 9.649777-7.765871 17.47193-17.34504 17.47193l-196.577121 0c-9.579169 0-17.34504-7.822153-17.34504-17.47193l0-32.197306C395.99187 708.969303 403.756717 701.14715 413.33691 701.14715zM815.177997 766.198725 688.208211 766.198725c-11.30344 0-20.466124-9.162684-20.466124-20.466124s9.162684-20.466124 20.466124-20.466124l126.969786 0c20.703531 0 37.548174-16.844643 37.548174-37.548174l0-605.432972c0-20.703531-16.844643-37.548174-37.548174-37.548174L208.819956 44.737156c-20.703531 0-37.547151 16.844643-37.547151 37.548174L171.272805 687.718303c0 20.703531 16.84362 37.548174 37.547151 37.548174l128.826064 0c11.30344 0 20.466124 9.162684 20.466124 20.466124s-9.162684 20.466124-20.466124 20.466124L208.819956 766.198725c-43.273573 0-78.479399-35.205826-78.479399-78.480422l0-605.432972c0-43.274596 35.205826-78.480422 78.479399-78.480422l606.358041 0c43.274596 0 78.480422 35.205826 78.480422 78.480422L893.65842 687.718303C893.659443 730.992899 858.452593 766.198725 815.177997 766.198725z"  horiz-adv-x="1024" />

    
    <glyph glyph-name="daoru" unicode="&#58912;" d="M933.333024 186.434366l-40.797172 0c-4.926196 0-9.265014-3.319605-10.466376-8.096399-9.764388-38.808888-29.841655-74.40357-58.873876-103.434767-42.352597-42.352597-98.664114-65.677838-158.560272-65.677838-59.896158 0-116.207675 23.324218-158.560272 65.677838-28.443819 28.442796-48.284703 63.188134-58.259892 101.081163l102.195543 0c8.857738 0 13.644765 10.382465 7.891737 17.117866L421.630806 352.661248c-4.143367 4.851495-11.640108 4.851495-15.783475 0L269.574668 193.101205c-5.753027-6.735401-0.966001-17.117866 7.891737-17.117866l107.673302 0c-0.030699-0.88209 0.036839-1.782599 0.231267-2.692319 27.631314-128.854717 142.15565-225.464031 279.264355-225.464031s251.633041 96.609315 279.264355 225.464031C945.348686 180.047912 940.244434 186.434366 933.333024 186.434366zM336.842725 9.224338 148.107199 9.224338c-3.786233 0-6.855128 3.068895-6.855128 6.855128L141.252071 751.920534c0 3.786233 3.068895 6.855128 6.855128 6.855128l550.563294 0c3.786233 0 6.855128-3.068895 6.855128-6.855128l0-553.923832c0-3.786233 3.068895-6.855128 6.855128-6.855128l47.687092 0c3.786233 0 6.855128 3.068895 6.855128 6.855128L766.92297 801.039231c0 10.524704-8.611122 19.134803-19.134803 19.134803L98.988502 820.174034c-10.524704 0-19.134803-8.611122-19.134803-19.134803l0-834.078463c0-10.524704 8.611122-19.134803 19.134803-19.134803l237.854223 0c3.786233 0 6.855128 3.068895 6.855128 6.855128l0 47.687092C343.697853 6.155443 340.628958 9.224338 336.842725 9.224338zM627.709325 624.159732c0 1.061169-0.868787 1.929955-1.929955 1.929955L220.9973 626.089687c-1.061169 0-1.929955-0.868787-1.929955-1.929955l0-57.538461c0-1.061169 0.868787-1.929955 1.929955-1.929955l404.78207 0c1.061169 0 1.929955 0.868787 1.929955 1.929955L627.709325 624.159732zM625.77937 486.920044 220.9973 486.920044c-1.061169 0-1.929955-0.868787-1.929955-1.929955l0-57.538461c0-1.061169 0.868787-1.929955 1.929955-1.929955l404.78207 0c1.061169 0 1.929955 0.868787 1.929955 1.929955l0 57.538461C627.709325 486.052281 626.841561 486.920044 625.77937 486.920044z"  horiz-adv-x="1024" />

    
    <glyph glyph-name="jingshi" unicode="&#58901;" d="M896.895716-126.869902 127.625102-126.869902C76.03712-126.869902 34.594987-105.069227 13.89824-67.044409-6.804196-29.021013-4.285724 20.649244 20.833849 69.183147L408.973938 819.087644C434.238862 867.976818 471.808853 896 512.004267 896 552.204231 896 589.73696 868.012089 615.07328 819.166151L1003.61984 69.106062C1028.73344 20.570738 1031.330702-29.062542 1010.589582-67.081102 989.925547-105.104498 948.44928-126.869902 896.895716-126.869902L896.895716-126.869902ZM512.042951 817.279716C499.262862 817.279716 484.623076 803.621547 472.755769 780.750791L84.617102 30.769209C72.455964 7.231147 69.609244-13.910187 76.872818-27.248356 84.143502-40.552676 102.651164-48.192569 127.625102-48.192569L896.895716-48.192569C921.909476-48.192569 940.383004-40.594204 947.648-27.248356 954.872889-13.945458 952.064853 7.189618 939.871004 30.72768L551.329849 780.750791C539.49696 803.621547 524.784356 817.279716 512.042951 817.279716L512.042951 817.279716ZM512.26112 228.241351C492.110507 228.241351 475.753529 245.838507 475.753529 267.603911L475.753529 621.851022C475.753529 643.579449 492.110507 661.213298 512.26112 661.213298 532.416 661.213298 548.772693 643.579449 548.772693 621.851022L548.772693 267.603911C548.772693 245.838507 532.416 228.241351 512.26112 228.241351L512.26112 228.241351ZM457.497031 90.317938C457.497031 105.778062 463.397262 121.140907 473.536 132.07296 483.67616 142.997049 497.926542 149.364053 512.26112 149.364053 526.599964 149.364053 540.84608 142.997049 550.984818 132.07296 561.123556 121.140907 567.029476 105.778062 567.029476 90.317938 567.029476 74.865778 561.123556 59.501227 550.984818 48.57088 540.84608 37.640533 526.599964 31.279787 512.26112 31.279787 497.926542 31.279787 483.67616 37.640533 473.536 48.57088 463.397262 59.501227 457.497031 74.865778 457.497031 90.317938L457.497031 90.317938Z"  horiz-adv-x="1025" />

    
    <glyph glyph-name="dangan" unicode="&#59071;" d="M1029.6849884375001 457.0890178125M362.8112853125-27.41783156249994L223.34133406249998-27.41783156249994c-57.6752015625 0-104.602779375 51.2820225-104.602779375 114.23871L118.73855468749997 681.1930237500001c0 62.944040625 46.927577812500004 114.23871 104.602779375 114.23871l627.5989696875 0c57.6688771875 0 104.6091028125-51.294669375 104.6091028125-114.23871l0-57.199665c0-18.922798125 15.629457187499998-34.2841340625 34.8734953125-34.2841340625 19.2453028125 0 34.8595828125 15.361335937500002 34.8595828125 34.2841340625L1025.282485625 681.1930237500001c0 100.7909015625-78.172580625 182.806978125-174.343445625 182.806978125L223.34133406249998 864.0000009375c-96.09751125 0-174.3371221875-82.0160765625-174.3371221875-182.806978125l0-594.3721453124999c0-100.87310906249999 78.2396109375-182.8208896875 174.3371221875-182.8208896875l139.46995124999998 0c19.244038125 0 34.8734953125 15.3739828125 34.8734953125 34.282869375C397.684780625-42.77663812500009 382.05532343749996-27.41783156249994 362.8112853125-27.41783156249994zM223.34133406249998 589.7092246875c-19.2453028125 0-34.867171875000004-15.361335937500002-34.867171875000004-34.28539875s15.621869062499998-34.2841340625 34.867171875000004-34.2841340625l278.938636875 0c19.244038125 0 34.860847500000006 15.361335937500002 34.860847500000006 34.2841340625s-15.616810312500002 34.28539875-34.860847500000006 34.28539875L223.34133406249998 589.7092246875zM467.4064765625 349.71522843749995c0 18.9253275-15.615545625 34.28539875-34.8595828125 34.28539875L223.34133406249998 384.0006271875c-19.2453028125 0-34.867171875000004-15.361335937500002-34.867171875000004-34.28539875 0-18.922798125 15.621869062499998-34.2841340625 34.867171875000004-34.2841340625l209.20429406250003 0C451.7909309375 315.429830625 467.4064765625 330.7924303125001 467.4064765625 349.71522843749995zM886.0616853125 285.77837999999997c52.6061878125 37.4029425 86.9105578125 98.23615968749999 86.9105578125 166.79178000000002 0 113.4216984375-93.85262625 205.7085975-209.189116875 205.7085975-115.3352259375 0-209.20429406250003-92.286898125-209.20429406250003-205.7085975 0-68.556885 34.3106934375-129.3901021875 86.92193999999999-166.7930446875-111.02884125-54.696776250000006-191.5310428125-175.3716665625-191.5310428125-278.90701874999996 0-18.924062812499997 15.6281925-34.286663437499996 34.8734953125-34.286663437499996 19.257949687500002 0 34.87476 15.362600624999999 34.87476 34.286663437499996 0 94.83152249999999 109.3353759375 239.99146593749998 244.06514156249997 239.99146593749998S1007.848266875 101.70161906249996 1007.848266875 6.870096562500066c0-18.924062812499997 15.616810312500002-34.286663437499996 34.872230625-34.286663437499996 19.2465675 0 34.87476 15.362600624999999 34.87476 34.286663437499996C1077.5952575000001 110.4067134375 997.0905265624999 231.08286750000002 886.0616853125 285.77837999999997zM763.781860625 315.429830625c-76.979945625 0-139.46868562499998 61.445342812499995-139.46868562499998 137.140329375 0 75.6418678125 62.48874 137.140329375 139.46868562499998 137.140329375s139.46868562499998-61.498461562500005 139.46868562499998-137.140329375C903.2505462500001 376.87517343749994 840.7618062500001 315.429830625 763.781860625 315.429830625z"  horiz-adv-x="1136" />

    
    <glyph glyph-name="yundanguanli" unicode="&#59027;" d="M120.538229-105.702178c-55.2946 0-60.794063 44.895616-60.794063 44.895616s0 868.715165 0 888.613221c0 19.898057 15.498486 44.995606 38.996192 44.995606l440.956938 0c16.79836 0 38.19627-30.697002 38.19627-30.697002l0-210.879406c0-20.298018 17.898252-37.996289 38.39625-37.996289l218.578654 0c0 0 30.896983-33.99668 30.896983-47.295381s0-209.579533 0-209.579533l27.597305-26.497412L893.362758 537.634997c0 17.498291-4.799531 38.796211-17.19832 51.195L583.293038 878.90167C570.794258 891.300459 554.29587 896 536.697588 896L98.640367 896C61.943951 896 32.146861 866.40289 32.146861 829.906454l0-891.812909c0-36.496436 29.79709-66.093546 66.493506-66.093546l495.251636 0-20.697979 22.197832C573.194024-105.702178 148.135534-105.702178 120.538229-105.702178zM187.231716 110.476711l258.574749 0 12.198809 21.497901L187.231716 131.974612 187.231716 110.476711zM187.231716 680.121082l0-22.497803 292.671419 0 0 22.497803L187.231716 680.121082zM187.231716 518.936823l325.368226 0-13.398692 22.497803L187.231716 541.434626 187.231716 518.936823zM575.293819 408.847573 187.231716 408.847573l0-22.497803L557.995508 386.349771 575.293819 408.847573zM504.300752 276.260521 187.231716 276.260521l0-22.497803 301.77053 0L504.300752 276.260521zM987.453569 124.175373c-2.899717 2.899717-6.699346 4.39957-10.598965 4.39957l-22.897764 0c-9.499072 0-19.498096 7.299287-22.297822 16.298408L919.96016 173.57055c-4.499561 8.29919-2.599746 20.497998 3.999609 27.197344l16.198418 16.098428c2.699736 2.699736 4.39957 6.399375 4.39957 10.498975 0 4.0996-1.699834 7.799238-4.39957 10.498975l-27.497315 27.297334c-2.699736 2.699736-6.399375 4.39957-10.598965 4.39957-4.0996 0-7.899229-1.699834-10.598965-4.39957L875.364515 249.063177c-6.699346-6.599356-18.998145-8.49917-27.297334-3.999609l-28.797188 11.798848c-8.999121 2.799727-16.398399 12.79875-16.398399 22.197832l0 22.797774c0 3.799629-1.499854 7.599258-4.39957 10.498975-2.899717 2.899717-6.699346 4.39957-10.598965 4.39957l-38.896202 0c-3.799629 0-7.699248-1.499854-10.598965-4.39957-2.899717-2.899717-4.39957-6.699346-4.39957-10.498975l0-22.797774c0-9.399082-7.399277-19.398106-16.398399-22.197832L688.882726 245.063568c-8.39918-4.499561-20.597988-2.599746-27.297334 3.999609l-16.298408 16.098428c-2.699736 2.699736-6.499365 4.29958-10.598965 4.29958-4.0996 0-7.899229-1.699834-10.598965-4.39957l-27.397324-27.297334c-2.699736-2.699736-4.39957-6.399375-4.39957-10.498975 0-4.0996 1.699834-7.799238 4.39957-10.498975l16.198418-16.098428c6.699346-6.699346 8.49917-18.898154 3.999609-27.197344l-11.798848-28.697198c-2.799727-8.999121-12.79875-16.298408-22.297822-16.298408l-22.897764 0c-3.799629 0-7.699248-1.499854-10.598965-4.39957-2.899717-2.899717-4.39957-6.699346-4.39957-10.498975L544.896787 75.080168c0-3.799629 1.499854-7.599258 4.39957-10.498975 2.899717-2.899717 6.699346-4.39957 10.598965-4.39957l22.897764 0c9.499072 0 19.498096-7.399277 22.297822-16.298408l11.898838-28.597207c4.499561-8.29919 2.599746-20.597988-3.999609-27.197344l-16.198418-16.098428c-2.699736-2.699736-4.39957-6.399375-4.39957-10.498975 0-4.0996 1.699834-7.799238 4.39957-10.498975l27.497315-27.297334c2.699736-2.699736 6.399375-4.39957 10.598965-4.39957 4.0996 0 7.899229 1.699834 10.598965 4.39957l16.198418 16.098428c6.699346 6.599356 18.898154 8.49917 27.197344 3.999609l28.797188-11.798848c8.999121-2.799727 16.398399-12.79875 16.398399-22.197832l0-22.697783c0-3.799629 1.499854-7.599258 4.39957-10.498975 2.899717-2.899717 6.699346-4.29958 10.598965-4.29958l38.796211 0c3.799629 0 7.699248 1.499854 10.598965 4.29958 2.899717 2.899717 4.39957 6.699346 4.39957 10.498975l0 22.697783c0 9.399082 7.399277 19.398106 16.398399 22.197832l28.797188 11.798848c8.29919 4.499561 20.597988 2.699736 27.297334-3.999609l16.098428-16.098428c2.699736-2.699736 6.399375-4.39957 10.598965-4.39957 4.0996 0 7.899229 1.699834 10.598965 4.39957l27.497315 27.397324c2.699736 2.699736 4.39957 6.399375 4.39957 10.498975 0 4.0996-1.699834 7.799238-4.39957 10.498975L923.95977-12.011327c-6.699346 6.599356-8.49917 18.898154-3.999609 27.197344l11.798848 28.597207c2.799727 8.999121 12.89874 16.298408 22.297822 16.298408L976.954594 60.081633c3.799629 0 7.599258 1.499854 10.598965 4.39957 2.899717 2.899717 4.39957 6.699346 4.39957 10.498975l0 38.696221C991.853139 117.476028 990.453276 121.275657 987.453569 124.175373zM768.574944-10.311493c-58.094327 0-105.289718 46.79543-105.289718 104.689776 0 57.794356 47.095401 104.689776 105.289718 104.689776 58.094327 0 105.189728-46.89542 105.189728-104.689776C873.764671 36.583927 826.669271-10.311493 768.574944-10.311493z"  horiz-adv-x="1024" />

    
    <glyph glyph-name="iconfontdocument1" unicode="&#58951;" d="M992 592.32v-497.728c0-49.152-37.376-89.024-83.456-89.024h-83.52v44.48h83.52c23.040 0 41.728 19.968 41.728 44.48v467.52h-166.976c-46.144 0-83.456 39.872-83.456 89.024v200.32h-375.68c-23.040 0-41.728-19.968-41.728-44.48h-41.728c0 49.152 37.376 89.024 83.52 89.024 0 0 160.32 0 313.024 0 3.712 0 7.424 0 11.136 0 7.36 0 14.4 0 21.568 0h58.368l257.6-295.936M741.568 814.464v-163.328c0-24.576 18.688-44.48 41.792-44.48h140.992l-182.784 207.808zM783.296 458.752v-497.6c0-49.152-37.376-89.088-83.456-89.088h-584.384c-46.080 0-83.456 39.872-83.456 89.088v712.32c0 49.152 37.376 89.024 83.456 89.024 0 0 160.32 0 313.024 0 3.712 0 7.488 0 11.136 0 7.36 0 14.336 0 21.568 0h58.368l257.664-295.872M532.864 680.96v-163.392c0-24.576 18.688-44.48 41.728-44.48h140.992l-182.72 207.872zM73.728 673.408v-712.32c0-24.64 18.688-44.544 41.728-44.544h584.384c23.040 0 41.728 19.968 41.728 44.544v467.456h-166.912c-46.080 0-83.456 39.872-83.456 89.024v200.32h-375.68c-23.104 0-41.792-19.904-41.792-44.48zM178.112 406.272h208.704v-44.48h-208.704l-0 44.48zM178.112 539.84h208.704v-44.48h-208.704l-0 44.48zM637.248 228.16h-459.136v44.48h459.136v-44.48zM637.248 94.592h-459.136v44.544h459.136v-44.544z"  horiz-adv-x="1024" />

    
    <glyph glyph-name="xintubiao01" unicode="&#58897;" d="M959.734537 141.821443 1023.488511 181.957946l-23.69624 57.770581-73.092731-16.966074c-10.43232 14.409654-23.127465 27.215281-37.76422 38.216376l16.594733 73.128535-57.598721 24.105431-39.483844-63.32637c-18.062705 2.851037-36.123365 2.923668-53.762557 0.367249l-39.232192 63.406162-57.777742-23.574505 15.841822-72.902458c-14.414769-10.516204-27.330877-23.274773-38.363684-37.995413l-72.386877 17.11952-24.059397-57.555756 62.580619-40.383041c-2.820348-18.066797-2.782498-36.160192-0.152424-53.957946l-63.29568-39.079768 23.653275-57.850374 72.939285 15.926729c10.591904-14.342138 23.237946-27.142649 37.953471-38.07009l-17.11952-72.760264 57.556779-24.022569 40.651061 63.105407c17.945063-2.709866 36.043572-2.636212 53.57433 0.079792L847.184559-126.977023l57.709203 23.721814-16.973235 73.213443c14.231656 10.504951 26.989203 23.12235 37.807185 37.6476l73.581714-16.625423 24.020523 57.555756-63.821491 39.896104C962.290957 106.383473 962.290957 124.248743 959.734537 141.821443zM887.573738 70.993582c-24.646585-58.930637-92.408583-86.674797-151.38014-62.020028-58.874374 24.653746-86.716739 92.358458-62.062993 151.42822 24.648631 58.874374 92.444388 86.619556 151.375025 61.971948C884.428084 197.679057 912.221347 129.9723 887.573738 70.993582zM240.121351 574.763732 670.498014 574.763732 670.498014 497.877802 240.121351 497.877802 240.121351 574.763732 240.121351 574.763732 240.121351 574.763732ZM240.121351 358.057303 537.062937 358.057303 537.062937 281.171373 240.121351 281.171373 240.121351 358.057303 240.121351 358.057303 240.121351 358.057303ZM240.121351 165.844012 455.224775 165.844012 455.224775 88.958082 240.121351 88.958082 240.121351 165.844012 240.121351 165.844012 240.121351 165.844012ZM124.792967 50.511536M536.723309-60.33007 231.16621-60.33007l-76.888999 0c-42.414673 0-84.385375 43.679073-84.385375 86.094769l0.825542 517.572156c0 38.258318 45.202286 45.127608 83.559832 45.127608l115.333499 0c21.174601 0 38.447568 17.266829 38.447568 38.437339L308.058278 744.033694c0 34.090709-0.385662 78.616807 27.320647 85.671257l326.164971-0.147309c42.424903 0 84.930621-44.909714 84.930621-87.329502L746.474517 442.821179l-0.005115 0 0-20.45954L815.312687 422.361638l0 20.45954L815.312687 742.229163C815.312687 827.0002 746.308795 896 661.543896 896L308.058278 896c-40.857702 0-80.047952-37.995413-145.821283-105.116004-9.232368-9.380699-18.613067-18.992591-28.151305-28.457175-9.465606-9.533123-19.076476-18.918937-28.45206-28.151305C38.506901 668.501163 0.511489 629.29966 0.511489 588.464464l0-562.699764c0-84.766945 68.997754-153.764699 153.770837-153.764699l76.883884 0 305.557099 0L536.723309-60.33007z"  horiz-adv-x="1024" />

    
    <glyph glyph-name="hulve1" unicode="&#59107;" d="M512.450766 785.124773c54.994522 0 106.819864-10.5728 155.466817-31.726585 48.646953-21.153786 91.101881-49.858548 127.361713-86.117356 36.259832-36.259832 64.963571-78.710666 86.117356-127.361713 21.149693-48.646953 31.726585-100.472296 31.726585-155.466817 0-55.599296-10.576893-107.724467-31.726585-156.37142-21.153786-48.651047-49.858548-91.101881-86.117356-127.361713s-78.714759-64.963571-127.361713-86.117356-100.472296-31.726585-155.466817-31.726585c-55.597249 0-107.723444 10.5728-156.370397 31.726585-48.651047 21.153786-91.101881 49.858548-127.361713 86.117356-36.258809 36.259832-64.963571 78.710666-86.117356 127.361713-21.153786 48.646953-31.726585 100.772124-31.726585 156.37142 0 54.994522 10.5728 106.819864 31.726585 155.466817 21.153786 48.651047 49.858548 91.101881 86.117356 127.361713 36.259832 36.258809 78.710666 64.963571 127.361713 86.117356C404.732439 774.551974 456.853517 785.124773 512.450766 785.124773M512.450766 38.17367c47.743374 0 92.613304 9.061376 134.616954 27.193339 41.999556 18.131963 78.714759 42.907229 110.137423 74.329892 31.426757 31.426757 56.206116 68.14196 74.333986 110.141516 18.131963 42.00365 27.193339 86.87358 27.193339 134.613884 0 47.747467-9.061376 92.617397-27.193339 134.616954-18.127869 41.999556-42.907229 78.713736-74.333986 110.1364-31.422663 31.426757-68.137867 56.206116-110.137423 74.333986-42.00365 18.131963-86.87358 27.197432-134.616954 27.197432-48.342008 0-93.516884-9.06547-135.520533-27.197432-41.999556-18.127869-78.714759-42.907229-110.137423-74.333986-31.426757-31.422663-56.202023-68.136843-74.332962-110.1364-18.131963-41.999556-27.194362-86.869486-27.194362-134.616954 0-47.741327 9.0624-92.610234 27.194362-134.613884 18.130939-41.999556 42.906206-78.714759 74.332962-110.141516 31.422663-31.41857 68.137867-56.19793 110.137423-74.329892C418.934906 47.235047 464.108758 38.17367 512.450766 38.17367M297.177841 441.173141c15.129582 0 26.780947-4.804423 34.960233-14.413268 8.178263-9.609869 12.267395-19.935028 12.267395-30.975479l0-6.747681c0-13.902638-3.577478-25.65838-10.732435-35.269271-7.15905-9.609869-19.11536-14.414291-35.884278-14.414291l-4.29277 0c-15.537881 0-27.90556 4.296863-37.107129 12.879332-9.201569 8.591679-13.802354 20.446681-13.802354 35.573193l0 8.590656c0 5.316076 1.12359 10.628058 3.373841 15.945157 2.25025 5.320169 5.41636 10.124592 9.509585 14.418384 4.089132 4.29277 9.201569 7.765871 15.33322 10.42442 6.131651 2.65855 12.883425 3.988848 20.237927 3.988848L297.177841 441.173141zM517.983783 441.173141c15.129582 0 26.78197-4.804423 34.960233-14.413268 8.178263-9.609869 12.267395-19.935028 12.267395-30.975479l0-6.747681c0-13.902638-3.577478-25.65838-10.732435-35.269271-7.15905-9.609869-19.119453-14.414291-35.883255-14.414291l-4.29277 0c-15.536858 0-27.90556 4.296863-37.106106 12.879332-9.203616 8.591679-13.799284 20.446681-13.799284 35.573193l0 8.590656c0 5.316076 1.12359 10.628058 3.369747 15.945157 2.249227 5.320169 5.420453 10.124592 9.509585 14.418384 4.089132 4.29277 9.200546 7.765871 15.332197 10.42442 6.137791 2.65855 12.883425 3.988848 20.243043 3.988848L517.983783 441.173141zM738.785631 441.173141c15.133675 0 26.786063-4.804423 34.964326-14.413268 8.17417-9.609869 12.267395-19.935028 12.267395-30.975479l0-6.747681c0-13.902638-3.577478-25.65838-10.732435-35.269271-7.15905-9.609869-19.119453-14.414291-35.883255-14.414291l-4.296863 0c-15.533788 0-27.90556 4.296863-37.103036 12.879332-9.201569 8.591679-13.798261 20.446681-13.798261 35.573193l0 8.590656c0 5.316076 1.119497 10.628058 3.368724 15.945157 2.251274 5.320169 5.417383 10.124592 9.510608 14.418384 4.089132 4.29277 9.197476 7.765871 15.33322 10.42442 6.131651 2.65855 12.879332 3.988848 20.237927 3.988848L738.785631 441.173141z"  horiz-adv-x="1024" />

    
    <glyph glyph-name="3banxing" unicode="&#58922;" d="M608.061 577.106c-17.604 0-31.868-14.251-31.868-31.849 0-17.598 14.264-31.875 31.868-31.875l63.736 0c17.598 0 31.868 14.277 31.868 31.875 0 17.597-14.271 31.849-31.868 31.849L608.061 577.106zM1023.187 677.219c-0.76 7.386-4.462 13.924-10.916 17.826L688.541 890.601c-3.117 1.883-6.589 2.973-10.204 3.342-0.036 0.042-0.076 0.084-0.112 0.126l-38.321 0c-0.779-34.854-57.53-62.999-127.454-62.999-69.912 0-126.669 28.144-127.448 62.999l-38.321 0c-0.036-0.042-0.076-0.084-0.112-0.126-3.615-0.369-7.086-1.459-10.204-3.342L12.637 695.045c-6.604-3.992-10.324-10.746-10.961-18.343C1.235 674.859 1 672.95 1 670.994l0-63.935c0-6.169 2.31-11.866 6.214-16.481 2.687-4.422 6.489-8.253 11.286-11.027l173.616-112.028 0-561.617c0-17.623 14.412-31.906 32.191-31.906 0.224 0 0.445 0.012 0.668 0.017 0.221-0.005 0.44-0.017 0.661-0.017L799.27-126c0.222 0 0.44 0.012 0.661 0.017 0.223-0.005 0.444-0.017 0.668-0.017 17.78 0 32.191 14.283 32.191 31.906L832.79 465.138l173.617 114.413c4.649 2.689 8.36 6.375 11.031 10.627 4.113 4.683 6.56 10.532 6.56 16.881l0 63.935C1024 673.135 1023.713 675.216 1023.187 677.219zM959.995 625.165 783.335 508.76c-12.658-7.322-18.398-21.99-14.939-35.497l0-535.507L256.512-62.244 256.512 475.884c3.46 13.507-2.281 28.176-14.939 35.498L65.005 625.305l0 26.356L347.817 822.504c27.974-31.563 91.159-53.586 164.634-53.586 73.479 0 136.666 22.023 164.64 53.586l282.904-170.895L959.995 625.165z"  horiz-adv-x="1024" />

    
    <glyph glyph-name="icon-yxj-mune" unicode="&#58889;" d="M984.576-102.4h-945.152c-21.504 0-39.424 16.896-39.424 38.4s17.408 38.4 39.424 38.4h945.152c21.504 0 39.424-16.896 39.424-38.4s-17.408-38.4-39.424-38.4zM984.576 174.080h-945.152c-21.504 0-39.424 16.896-39.424 38.4s17.408 38.4 39.424 38.4h945.152c21.504 0 39.424-16.896 39.424-38.4s-17.408-38.4-39.424-38.4zM984.576 450.56h-945.152c-22.016 0-39.424 16.896-39.424 38.4s17.408 38.4 39.424 38.4h945.152c21.504 0 39.424-16.896 39.424-38.4s-17.408-38.4-39.424-38.4zM382.464 754.688l101.888 101.888c15.36 15.36 40.448 15.36 55.808 0l101.888-101.888c24.576-24.576 7.168-67.072-27.648-67.072h-204.288c-34.816 0-52.736 42.496-27.648 67.072z"  horiz-adv-x="1024" />

    
    <glyph glyph-name="news" unicode="&#59149;" d="M959.266601 649.531514c0.064956 2.516694-0.063957 5.819454-0.785467 9.469979-0.76648 5.301805-2.238482 10.802676-5.192479 13.935951-6.90332 11.459231-30.409183 8.674119-30.409183 8.674119L101.122023 681.611563c0 0-23.508062 2.785112-30.416378-8.674119-2.9494-3.133276-4.421402-8.634146-5.192479-13.935951-0.718913-3.650525-0.848425-6.953286-0.780871-9.469979-0.054963-2.59624 0.007595-4.401416 0.007595-4.401416l0-308.48065c0.099333 0.099932 0.211257 0.188872 0.310789 0.298797l0-211.787808c0 0-1.830159-24.559349 5.963357-31.044952 13.368936-11.111466 28.476693-7.440955 28.476693-7.440955l326.320355 0 172.37413 0 326.320954 0c0 0 15.104759-3.670511 28.473695 7.440955 7.798712 6.485603 5.968953 31.044952 5.968953 31.044952L958.948817 336.948045c0.098933-0.109925 0.208858-0.198865 0.307791-0.298797L959.256608 645.129898C959.256608 645.129898 959.316567 646.935274 959.266601 649.531514zM886.850899 644.428973 541.340955 285.301262c-7.837686-8.146477-18.581402-12.224712-29.342106-12.264685-10.759705 0.039973-21.505419 4.118208-29.344105 12.264685L137.143601 644.428973 886.850899 644.428973zM100.818429 629.348598l231.941144-241.132312 0.151897-0.158892L100.818429 146.775582 100.818429 629.348598zM586.442376 123.857121l-148.888254 0L129.352483 123.857121 358.227106 361.756225l98.831192-102.735146c14.620088-15.219681 34.091886-23.604996 54.786655-23.604996 0.051965 0 0.099932 0.009993 0.153896 0.009993 0.052964 0 0.099932-0.009993 0.151897-0.009993 20.695968 0 40.172763 8.385315 54.784656 23.604996l98.836789 102.735146 228.872225-237.899104L586.442376 123.857121zM923.178069 146.775582 691.088026 388.057393l0.148899 0.158892L923.178069 629.348598 923.178069 146.775582z"  horiz-adv-x="1024" />

    
    <glyph glyph-name="ren" unicode="&#58934;" d="M796.775898 130.451558c-7.749143 18.32147-17.33898 35.98983-28.503012 52.514817-11.052028 16.358947-23.743094 31.741053-37.721222 45.718935-13.977882 13.978128-29.359988 26.669195-45.718935 37.721222-16.524742 11.163786-34.193347 20.753623-52.514817 28.503012-6.375376 2.696689-12.818053 5.16544-19.31968 7.416324 81.480336 38.057725 137.938376 120.737435 137.938376 216.603878 0 131.961153-106.975455 238.936608-238.936608 238.936608s-238.936608-106.975455-238.936608-238.936608c0-95.866443 56.45804-178.546153 137.938376-216.603878-6.501626-2.250884-12.944303-4.719881-19.31968-7.416324-18.321716-7.749388-35.990075-17.339226-52.514817-28.503012-16.359192-11.052028-31.741298-23.743094-45.719181-37.721222-13.978128-13.977882-26.669195-29.359988-37.721222-45.718935-11.163786-16.524742-20.753623-34.193347-28.503012-52.514817-16.126342-38.126991-24.302868-78.607781-24.302868-120.318158l68.283041 0c0 32.522132 6.361867 64.053423 18.908999 93.718229 12.126135 28.669789 29.493361 54.424777 51.618541 76.550202 22.125425 22.125179 47.880658 39.49216 76.550202 51.618541 29.66456 12.546886 61.195851 18.908753 93.718229 18.908753 32.522132 0 64.053423-6.361867 93.718229-18.908753 28.669789-12.12638 54.425023-29.493361 76.550448-51.618541 22.125179-22.125425 39.49216-47.880658 51.618541-76.550202 12.546886-29.66456 18.908753-61.195851 18.908753-93.718229l68.283041 0C821.079257 51.843776 812.902486 92.324813 796.775898 130.451558zM370.450974 423.563145c-6.161439 9.120207-11.450919 18.86405-15.721556 28.961343-8.880234 20.99507-13.382739 43.336888-13.382739 66.405258 0 23.068124 4.502751 45.409942 13.382739 66.405012 4.270638 10.097293 9.560363 19.841136 15.721556 28.961343 6.114771 9.050942 13.139573 17.564462 20.878891 25.303779 7.739318 7.739318 16.252838 14.76412 25.303779 20.878891 9.120207 6.161439 18.86405 11.450919 28.961343 15.721556 20.99507 8.880234 43.336888 13.382739 66.405012 13.382739s45.409942-4.502751 66.405012-13.382739c10.097293-4.270638 19.841136-9.560363 28.961343-15.721556 9.050942-6.114771 17.564462-13.139573 25.303779-20.878891 7.739318-7.739318 14.76412-16.252838 20.878891-25.303779 6.161194-9.120207 11.450919-18.86405 15.721556-28.961343 8.880234-20.99507 13.382985-43.336888 13.382985-66.405012 0-23.068124-4.502751-45.409942-13.382985-66.405258-4.270638-10.097293-9.560363-19.841136-15.721556-28.961343-6.114771-9.050942-13.139573-17.564462-20.878891-25.303779-7.739318-7.739318-16.252838-14.76412-25.303779-20.878891-9.120207-6.161194-18.86405-11.450919-28.961343-15.721556-20.99507-8.880234-43.336888-13.382739-66.405012-13.382739s-45.409942 4.502751-66.405012 13.382739c-10.097293 4.270638-19.841136 9.560363-28.961343 15.721556-9.050942 6.114771-17.564462 13.139573-25.303779 20.878891C383.590302 405.998684 376.5655 414.512203 370.450974 423.563145z"  horiz-adv-x="1024" />

    
    <glyph glyph-name="rili" unicode="&#58925;" d="M413.844 299.807l-96.847 0 0 96.847 96.847 0L413.844 299.807zM560.169 396.654l-96.845 0 0-96.847 96.845 0L560.169 396.654zM706.498 396.654l-96.845 0 0-96.847 96.845 0L706.498 396.654zM413.844 255.252l-96.847 0 0-96.845 96.847 0L413.844 255.252zM560.169 255.252l-96.845 0 0-96.845 96.845 0L560.169 255.252zM706.498 255.252l-96.845 0 0-96.845 96.845 0L706.498 255.252zM742.568 592.168c0-16.5-13.375-29.877-29.875-29.877-16.495 0-29.875 13.377-29.875 29.877l0 75.182c0 16.5 13.375 29.875 29.875 29.875 16.5 0 29.875-13.375 29.875-29.875L742.568 592.168zM338.932 667.486c0 16.5-13.377 29.875-29.875 29.875-16.5 0-29.875-13.375-29.875-29.875l0-75.182c0-16.5 13.375-29.877 29.875-29.877 16.497 0 29.875 13.377 29.875 29.877L338.932 667.486zM778.678 623.866l0-30.607c0-36.385-29.6-65.985-65.985-65.985-36.385 0-65.985 29.6-65.985 65.985l0 30.607L375.042 623.866l0-30.47c0-36.387-29.6-65.987-65.985-65.987s-65.987 29.6-65.987 65.987l0 30.47-71.657 0 0-590.248 677.386 0L848.799 623.866 778.678 623.866zM783.033 99.382 237.177 99.382 237.177 465.159l545.856 0L783.033 99.382z"  horiz-adv-x="1024" />

    
    <glyph glyph-name="jianjiaolingchangjianling" unicode="&#58920;" d="M501.058 258.416c0-13.036 10.41-23.617 23.245-23.617s23.245 10.578 23.245 23.617c0 0 0 0 0 0 0 13.036-10.41 23.617-23.245 23.617-12.839 0-23.245-10.578-23.245-23.617 0 0 0 0 0 0zM234.384 524.828c0 0 240.656 21.409 570.972-1.070zM547.547 258.416v0zM145.638 655.573c0 0 0.77 0.499 2.263 1.394zM152.507 659.642c19.598 11.066 79.46 41.218 157.526 46.422 95.966 6.401 310.257 1.591 367.837 0 56.404-1.567 116.17-2.693 197.39-32.281zM877.815 672.852c0.835-0.311 1.68-0.621 2.513-0.937zM220.239 534.626c0 0 248.625 32.209 600.754 0zM333.296 211.65c0 0 186.51-65.908 372.652 0zM146.083 669.011l-114.871-190.065c0 0 2.254-6.401 72.618-121.545 70.363-115.158 108.75-229.115 108.75-229.115l298.823 214.092 0.48 1.107c0 0-83.49 51.102-277.509 181.339-194 130.242-44.476 187.965 12.9 207.46 57.379 19.472 265.407 8.859 265.407 8.859l-11.892 1.782 26.247-2.88c0 0 208.029 10.62 265.407-8.859 57.381-19.5 206.919-77.204 12.899-207.433-194.006-130.256-277.507-181.361-277.507-181.361l298.816-214.092c0 0 38.386 113.958 108.75 229.115 70.366 115.148 72.619 121.545 72.619 121.545l-114.871 190.065zM468.278 311.494c0 0-35.182-39.17-24.714-123.775zM41.631 496.204c0 0 169.227-255.005 178.597-333.91l271.771 193.61zM997.905 496.204c0 0-169.227-255.005-178.585-333.91l-271.774 193.61zM482.824 321.905c0 0-30.382-57.143-22.914-124.906 0 0 100.163-12.372 238.261 23.374zM347.407 224.886c0 0 33.446-16.441 94.822-23.194zM511.881 343.492v0z"  horiz-adv-x="1024" />

    
    <glyph glyph-name="suo" unicode="&#59051;" d="M803.19473 456.480802l-64.265028 0 0 149.461865c0 125.171734-101.735224 226.960121-226.90236 226.960121-125.171734 0-227.019081-101.788587-227.019081-226.960121l0-149.461865-64.210665 0c-30.961208 0-56.053796-25.089989-56.053796-56.053796l0-409.214353c0-31.019169 25.093587-56.112756 56.053796-56.112756l582.455095 0c30.965805 0 56.000632 25.093587 56.000632 56.112756L859.253322 400.427006c-0.004597 30.965805-25.08899 56.053796-56.059392 56.053796L803.19473 456.480802zM543.5048 185.155161l0-89.358615c0-3.991494-3.30316-7.358211-7.357412-7.358211l-48.184931 0c-4.103618 0-7.411575 3.366717-7.411575 7.358211l0 89.358615c-22.637852 11.576951-38.317621 34.785216-38.317621 61.988772 0 38.488705 31.248214 69.795878 69.741515 69.795878 38.546665 0 69.799676-31.306174 69.799676-69.795878 0.053364-27.203556-15.626405-50.411621-38.268854-61.988772L543.5048 185.155161zM651.85214 456.480802 372.199145 456.480802l0 145.758376c0 77.098927 62.782633 139.88256 139.88156 139.88256s139.770236-62.783633 139.770236-139.88256l0-145.758576L651.85214 456.480802z"  horiz-adv-x="1024" />

    
    <glyph glyph-name="xiangqing" unicode="&#58886;" d="M814.121434 831.02108 209.796702 831.02108c-53.612035 0-97.194646-43.529399-97.194646-97.141434l0-700.154287c0-53.611012 43.583634-97.194646 97.194646-97.194646l604.325755 0c53.556777 0 97.16804 43.584658 97.223299 97.194646L911.345756 733.879646C911.344732 787.492704 867.67821 831.02108 814.121434 831.02108zM856.557942 33.725358c0-23.443945-19.045775-42.463114-42.436508-42.463114L209.796702-8.737756c-23.38971 0-42.407855 19.019169-42.407855 42.463114L167.388846 733.879646c0 23.391756 19.018146 42.464137 42.407855 42.464137l604.325755 0c23.38971 0 42.436508-19.072381 42.436508-42.464137L856.558965 33.725358zM266.093892 414.631648l52.829206 0 0-54.54529-52.829206 0 0 54.54529ZM266.093892 618.241952l52.829206 0 0-54.544267-52.829206 0 0 54.544267ZM266.093892 211.022367l52.829206 0 0-54.492078-52.829206 0 0 54.492078ZM361.513102 211.022367l399.37799 0 0-54.492078-399.37799 0 0 54.492078ZM361.513102 414.631648l399.37799 0 0-54.54529-399.37799 0 0 54.54529ZM361.513102 618.241952l399.37799 0 0-54.544267-399.37799 0 0 54.544267Z"  horiz-adv-x="1024" />

    
    <glyph glyph-name="wenbenbianji" unicode="&#59065;" d="M247.0912-100.1472 100.5568-100.1472c-39.936 0-72.4992 32.5632-72.4992 72.4992L28.0576 814.08c0 39.936 32.5632 72.4992 72.4992 72.4992l766.0544 0c39.936 0 72.4992-32.5632 72.4992-72.4992l0-210.5344c0-12.3904-10.0352-22.528-22.528-22.528s-22.528 10.0352-22.528 22.528L894.0544 814.08c0 15.1552-12.288 27.5456-27.5456 27.5456L100.5568 841.6256c-15.1552 0-27.5456-12.288-27.5456-27.5456L73.0112-27.648c0-15.1552 12.288-27.5456 27.5456-27.5456l146.5344 0c12.3904 0 22.528-10.0352 22.528-22.528S259.4816-100.1472 247.0912-100.1472zM745.2672 703.8976 174.6944 703.8976c-12.3904 0-22.528 10.0352-22.528 22.528s10.0352 22.528 22.528 22.528l570.5728 0c12.3904 0 22.528-10.0352 22.528-22.528S757.6576 703.8976 745.2672 703.8976zM437.6576 466.3296 174.6944 466.3296c-12.3904 0-22.528 10.0352-22.528 22.528s10.0352 22.528 22.528 22.528l262.9632 0c12.3904 0 22.528-10.0352 22.528-22.528S450.1504 466.3296 437.6576 466.3296zM620.6464 585.1136 174.6944 585.1136c-12.3904 0-22.528 10.0352-22.528 22.528s10.0352 22.528 22.528 22.528l445.952 0c12.3904 0 22.528-10.0352 22.528-22.528S633.1392 585.1136 620.6464 585.1136zM399.6672-113.8688c-6.2464 0-12.288 2.56-16.5888 7.2704-5.2224 5.7344-7.168 13.7216-5.12 21.2992l40.8576 146.6368c1.024 3.6864 3.072 7.168 5.7344 9.8304l408.9856 408.9856c14.1312 14.0288 36.9664 14.0288 51.0976 0l97.792-97.792c6.8608-6.8608 10.5472-15.872 10.5472-25.4976s-3.7888-18.7392-10.5472-25.4976L928.8704 277.504c-4.1984-4.1984-9.9328-6.5536-15.872-6.5536s-11.6736 2.3552-15.872 6.5536l-66.048 66.048c-8.8064 8.8064-8.8064 23.04 0 31.8464s23.04 8.8064 31.8464 0l50.176-50.176 31.4368 31.4368L859.136 441.9584 460.6976 43.52 431.104-62.6688 546.7136-40.96l231.7312 231.7312c5.0176 5.4272 50.7904 52.6336 107.2128 56.7296 12.3904 0.9216 23.1424-8.3968 24.064-20.7872 0.9216-12.3904-8.3968-23.1424-20.7872-24.064-40.3456-2.9696-77.4144-42.2912-77.824-42.7008-0.2048-0.2048-0.4096-0.512-0.7168-0.7168L573.5424-77.7216c-3.1744-3.1744-7.2704-5.3248-11.776-6.2464l-158.0032-29.5936C402.432-113.7664 401.1008-113.8688 399.6672-113.8688z"  horiz-adv-x="1024" />

    
    <glyph glyph-name="daxiangxiaoxiang" unicode="&#59087;" d="M302.329266 391.2192l-146.944 88.064c-11.776 7.168-27.136 3.328-34.048-8.448-7.168-11.776-3.328-27.136 8.448-34.304l146.944-88.064c11.776-7.168 27.136-3.328 34.048 8.704C317.945266 368.9728 314.105266 384.3328 302.329266 391.2192zM459.001266-124.8768c5.888-1.792 12.544-1.28 18.688 2.304C472.057266-125.6448 465.401266-126.6688 459.001266-124.8768zM302.329266 391.2192l-146.944 88.064c-11.776 7.168-27.136 3.328-34.048-8.448-7.168-11.776-3.328-27.136 8.448-34.304l146.944-88.064c11.776-7.168 27.136-3.328 34.048 8.704C317.945266 368.9728 314.105266 384.3328 302.329266 391.2192zM302.329266 391.2192l-146.944 88.064c-11.776 7.168-27.136 3.328-34.048-8.448-7.168-11.776-3.328-27.136 8.448-34.304l146.944-88.064c11.776-7.168 27.136-3.328 34.048 8.704C317.945266 368.9728 314.105266 384.3328 302.329266 391.2192zM302.329266 391.2192l-146.944 88.064c-11.776 7.168-27.136 3.328-34.048-8.448-7.168-11.776-3.328-27.136 8.448-34.304l146.944-88.064c11.776-7.168 27.136-3.328 34.048 8.704C317.945266 368.9728 314.105266 384.3328 302.329266 391.2192zM302.329266 391.2192l-146.944 88.064c-11.776 7.168-27.136 3.328-34.048-8.448-7.168-11.776-3.328-27.136 8.448-34.304l146.944-88.064c11.776-7.168 27.136-3.328 34.048 8.704C317.945266 368.9728 314.105266 384.3328 302.329266 391.2192zM302.329266 391.2192l-146.944 88.064c-11.776 7.168-27.136 3.328-34.048-8.448-7.168-11.776-3.328-27.136 8.448-34.304l146.944-88.064c11.776-7.168 27.136-3.328 34.048 8.704C317.945266 368.9728 314.105266 384.3328 302.329266 391.2192zM477.689266-122.5472c-6.144-3.584-12.8-4.096-18.688-2.304C465.401266-126.6688 472.057266-125.6448 477.689266-122.5472zM490.642866-58.112 490.642866 384.256l389.632 221.184 39.8848 24.1664c7.9872 5.1968 9.4976 11.8016 10.5472 16.5376 1.024 9.728-3.584 19.968-13.568 25.088l-440.32 220.16c-7.168 3.584-15.36 3.584-22.528 0l-440.32-220.16C-2.413134 660.48 0.146866 636.672 0.146866 634.112l0-469.76c0-8.704 4.608-16.896 12.032-21.504 0 0 430.848-260.352 438.272-263.68 15.104-7.424 24.576-5.376 31.744-1.792l143.36 82.944c12.288 7.168 16.384 22.784 9.216 35.072-6.912 12.288-22.784 16.384-34.816 9.472l-99.072-57.6 0 0.256L490.642866-58.112M440.466866 384.256l0-441.088L50.066866 178.432l0 427.52L440.466866 384.256zM465.554866 427.776 78.226866 647.424l387.328 193.536 387.328-193.536L465.554866 427.776zM812.946866-21.376l201.984 121.344c5.632 3.584 9.216 9.728 9.216 16.64l0 222.464c0 7.8336-5.888 13.312-12.288 16.384l-5.12 2.56c-0.512 0.256-1.28 0.256-1.792 0.256l1.536 0-196.352 98.048c-5.376 2.56-11.776 2.56-17.152 0l-196.096-98.048c-14.336-5.504-17.92-17.792-17.92-24.704l0-216.96c0-6.912 3.584-13.056 9.472-16.64 0 0 200.1664-120.0896 201.1904-120.3456C789.625266-20.4032 801.554866-29.2352 812.946866-21.376zM782.482866 27.776l-165.12 99.584 0 178.944 165.12-93.44L782.482866 27.776zM801.682866 245.888l-161.024 91.392 161.024 80.384 160.768-80.384L801.682866 245.888zM985.746866 127.36l-164.864-99.328 0 184.832 164.864 93.44L985.746866 127.36z"  horiz-adv-x="1026" />

    
    <glyph glyph-name="shanchu" unicode="&#59454;" d="M908.112108 678.545386 115.290281 678.545386c-14.141068 0-25.573445 11.431354-25.573445 25.572422 0 14.120602 11.431354 25.578562 25.573445 25.578562l792.821827 0c14.141068 0 25.572422-11.45796 25.572422-25.578562C933.68453 689.97674 922.253176 678.545386 908.112108 678.545386L908.112108 678.545386zM652.36026 780.842237 371.041106 780.842237c-14.141068 0-25.578562 11.43033-25.578562 25.578562 0 14.114462 11.437493 25.574469 25.578562 25.574469l281.319154 0c14.147208 0 25.578562-11.460006 25.578562-25.574469C677.938821 792.273591 666.507468 780.842237 652.36026 780.842237L652.36026 780.842237zM396.614551 115.902986 396.614551 550.670997c0 14.118556 11.43033 25.577538 25.573445 25.577538 14.148231 0 25.577538-11.458983 25.577538-25.577538l0-434.768011c0-14.147208-11.429307-25.577538-25.577538-25.577538C408.044882 90.325447 396.614551 101.754754 396.614551 115.902986L396.614551 115.902986zM575.634808 115.902986 575.634808 550.670997c0 14.118556 11.437493 25.577538 25.578562 25.577538 14.142092 0 25.573445-11.458983 25.573445-25.577538l0-434.768011c0-14.147208-11.431354-25.577538-25.573445-25.577538C587.072301 90.325447 575.634808 101.754754 575.634808 115.902986L575.634808 115.902986zM217.592248 601.820957c14.142092 0 25.574469-11.458983 25.574469-25.572422l0-30.281677L243.166717 448.3721l0-409.193543c0-28.235065 22.915919-51.150984 51.150984-51.150984l434.766988 0c28.235065 0 51.150984 22.916942 51.150984 51.150984L780.235672 448.3721l0 97.594759 0 30.281677c0 14.113439 11.431354 25.572422 25.573445 25.572422 14.147208 0 25.577538-11.458983 25.577538-25.572422l0-102.304014 0-25.572422 0-434.772105c0-42.376133-34.347273-76.724429-76.724429-76.724429L268.739139-63.124434c-42.376133 0-76.725452 34.347273-76.725452 76.724429L192.013687 401.441231 192.013687 448.3721l0 25.572422 0 102.304014C192.013687 590.361975 203.450157 601.820957 217.592248 601.820957L217.592248 601.820957zM217.592248 601.820957"  horiz-adv-x="1024" />

    
    <glyph glyph-name="quxiaodingdan" unicode="&#59064;" d="M966.144-68.608c-6.656 0-13.184 2.56-18.304 7.68L655.488 234.368c-10.112 10.24-10.112 26.624 0 36.864 10.112 10.24 26.368 10.24 36.48 0l292.48-295.296c10.112-10.24 10.112-26.624 0-36.864C979.456-66.048 972.8-68.608 966.144-68.608L966.144-68.608zM966.144-68.608M673.664-68.608c-6.656 0-13.184 2.56-18.304 7.68-10.112 10.24-10.112 26.624 0 36.864l292.48 295.296c10.112 10.24 26.368 10.24 36.48 0 10.112-10.24 10.112-26.624 0-36.864L691.968-60.928C686.976-66.048 680.32-68.608 673.664-68.608L673.664-68.608zM673.664-68.608M509.312-67.328l-404.48 0c-40.192 0-72.832 33.024-72.832 73.6L32 763.008c0 40.576 32.64 73.6 72.832 73.6l434.176 0c6.784 0 13.44-2.688 18.304-7.68l280.192-282.88c4.864-4.864 7.552-11.52 7.552-18.432l0-247.936c0-14.336-11.52-26.112-25.856-26.112s-25.856 11.648-25.856 26.112L793.344 516.864l-264.96 267.52L104.832 784.384c-11.648 0-21.248-9.6-21.248-21.376l0-756.864c0-11.776 9.472-21.376 21.248-21.376l404.48 0c14.208 0 25.856-11.648 25.856-26.112C535.168-55.68 523.52-67.328 509.312-67.328L509.312-67.328zM509.312-67.328M804.352 498.304 592.384 498.304c-44.672 0-80.896 36.608-80.896 81.664L511.488 806.656c0 14.336 11.52 26.112 25.856 26.112S563.2 820.992 563.2 806.656l0-226.688c0-16.256 13.184-29.568 29.312-29.568l211.84 0c14.208 0 25.856-11.648 25.856-26.112C830.08 509.952 818.56 498.304 804.352 498.304L804.352 498.304zM804.352 498.304M375.808 598.144 171.52 598.144c-14.208 0-25.856 11.648-25.856 26.112 0 14.464 11.52 26.112 25.856 26.112l204.288 0c14.208 0 25.856-11.648 25.856-26.112C401.664 609.792 390.144 598.144 375.808 598.144L375.808 598.144zM375.808 598.144M375.808 458.368 171.52 458.368c-14.208 0-25.856 11.648-25.856 26.112 0 14.336 11.52 26.112 25.856 26.112l204.288 0c14.208 0 25.856-11.648 25.856-26.112C401.664 470.016 390.144 458.368 375.808 458.368L375.808 458.368zM375.808 458.368M553.856 318.592 171.52 318.592c-14.208 0-25.856 11.648-25.856 26.112 0 14.336 11.52 26.112 25.856 26.112l382.336 0c14.208 0 25.856-11.648 25.856-26.112C579.584 330.24 568.064 318.592 553.856 318.592L553.856 318.592zM553.856 318.592M553.856 178.816 171.52 178.816c-14.208 0-25.856 11.648-25.856 26.112 0 14.336 11.52 26.112 25.856 26.112l382.336 0c14.208 0 25.856-11.648 25.856-26.112C579.584 190.592 568.064 178.816 553.856 178.816L553.856 178.816zM553.856 178.816"  horiz-adv-x="1024" />

    
    <glyph glyph-name="fankui1" unicode="&#58896;" d="M573.12 496.64 304.576 496.64 304.576 553.344l268.544 0L573.12 496.64zM304.576 354.88l416 0L720.576 411.584l-416 0L304.576 354.88zM965.632-69.632l0-0.192-56.704 0 0 0.128 0 0.96 0.064 0.96c2.048 61.12-23.552 122.432-72.192 172.736-23.68 24.512-53.824 44.928-86.464 62.592C685.888 113.408 602.816 80.64 512 80.64c-90.816 0-173.952 32.768-238.4 86.976-32.704-17.728-62.848-38.144-86.464-62.592-48.64-50.304-74.24-111.68-72.192-172.736l0.064-0.96 0-0.96 0-0.192L58.304-69.824l0 0.192c-3.648 108.416 60.672 212.928 172.928 279.36C175.296 274.688 141.248 358.976 141.248 451.392c0 79.744 25.152 153.536 67.904 214.016 0.064 0 0.064 0.064 0.064 0.064C209.344 665.6 209.472 665.792 209.6 665.92c0 0.064 0.064 0.128 0.128 0.128 34.432 48.96 66.304 84.352 30.016 111.744-27.072 20.48-76.8 20.672-76.8 20.672s119.68 39.36 262.848 39.36c112.32 0 239.04-24.192 333.888-110.592 75.52-67.84 123.072-166.272 123.072-275.84 0-92.416-34.048-176.704-89.984-241.664C905.024 143.296 969.344 38.784 965.632-69.632zM825.984 451.456c0 88.96-38.016 174.144-104.256 233.664l-0.128 0.128-0.128 0.128c-69.76 63.552-169.28 95.744-295.68 95.744-41.664 0-81.408-3.648-116.224-8.64 4.544-16.896 3.904-35.392-2.304-54.4-7.936-24.32-24-46.656-40.96-70.272-2.88-3.968-5.76-8-8.704-12.16L257.536 635.52 255.36 632.448C217.856 579.456 197.952 516.8 197.952 451.392c0-173.12 140.8-313.984 313.984-313.984S825.984 278.272 825.984 451.456z"  horiz-adv-x="1024" />

    
    <glyph glyph-name="liangtishi" unicode="&#59084;" d="M998.4-128c-14.1312 0-25.6 11.4688-25.6 25.6 0 209.152-139.4432 385.4848-330.3424 441.7792C603.4432 318.9248 559.104 307.2 512 307.2s-91.4432 11.7248-130.4576 32.1792C190.6432 283.0848 51.2 106.752 51.2-102.4c0-14.1312-11.4688-25.6-25.6-25.6s-25.6 11.4688-25.6 25.6c0 218.112 136.6272 403.8656 328.7552 477.6448C280.96 416.2816 247.3984 473.1392 235.4688 537.6l52.0448 0c23.3216-102.5792 114.8672-179.2 224.512-179.2s201.1904 76.6208 224.4864 179.2l52.0448 0c-11.9296-64.4608-45.5168-121.3184-93.312-162.3552C887.3728 301.4656 1024 115.712 1024-102.4 1024-116.5312 1012.5312-128 998.4-128zM857.6 588.8 793.6 588.8 230.4 588.8 166.4 588.8C159.3344 588.8 153.6 594.5344 153.6 601.6l0 25.6C153.6 634.2656 159.3344 640 166.4 640L230.4 640 230.4 819.2c0 42.4192 34.3808 76.8 76.8 76.8l409.6 0c42.4192 0 76.8-34.3808 76.8-76.8l0-179.2 64 0c7.0656 0 12.8-5.7344 12.8-12.8l0-25.6C870.4 594.5344 864.6656 588.8 857.6 588.8zM742.4 793.6c0 28.2624-22.9376 51.2-51.2 51.2L332.8 844.8c-28.2624 0-51.2-22.9376-51.2-51.2l0-153.6 460.8 0L742.4 793.6z"  horiz-adv-x="1024" />

    
    <glyph glyph-name="suo1" unicode="&#59089;" d="M83.2 460.8l601.6 0c32 0 57.6-25.6 57.6-57.6l0-422.4c0-32-25.6-57.6-57.6-57.6L83.2-76.8c-32 0-57.6 25.6-57.6 57.6L25.6 403.2C25.6 435.2 51.2 460.8 83.2 460.8L83.2 460.8zM352 179.2l0-89.6c0-6.4 6.4-6.4 6.4-6.4l51.2 0c6.4 0 6.4 6.4 6.4 6.4l0 89.6c25.6 12.8 38.4 38.4 38.4 64 0 38.4-32 70.4-70.4 70.4-38.4 0-70.4-32-70.4-70.4C313.6 211.2 326.4 192 352 179.2L352 179.2zM352 179.2M908.8 608c0 76.8-64 147.2-147.2 147.2-76.8 0-147.2-64-147.2-147.2l0-153.6L531.2 454.4 531.2 614.4c0 128 102.4 236.8 236.8 236.8 128 0 236.8-102.4 236.8-236.8l0-153.6-89.6 0L908.8 608 908.8 608zM908.8 608"  horiz-adv-x="1024" />

    
    <glyph glyph-name="qianming" unicode="&#59007;" d="M987.300897 569.66736c-11.474078 0-20.734504-9.302231-20.734504-20.756936L966.566393 48.709769c0-67.371077-54.816175-122.182154-122.182154-122.182154L177.40007-73.472385c-67.366999 0-122.182154 54.811077-122.182154 122.182154L55.217916 715.68986c0 67.371077 54.816175 122.182154 122.182154 122.182154L677.664963 837.872014c11.474078 0 20.734504 9.279799 20.734504 20.739602 0 11.454704-9.260426 20.734504-20.734504 20.734504L177.40007 879.34612c-90.259074 0-163.675633-73.416559-163.675633-163.674613l0-667.026995c0-90.215229 73.416559-163.651162 163.675633-163.651162l667.026995 0c90.215229 0 163.651162 73.435933 163.632808 163.651162L1008.059872 548.909405C1008.058853 560.364109 998.774975 569.66736 987.300897 569.66736L987.300897 569.66736zM987.300897 569.66736M279.899995 298.663778c-0.621984-0.891171-1.47033-1.535587-1.98729-2.550135L158.799685 57.92635c-3.978659-7.974652-2.404326-17.608269 3.911362-23.948428 3.959286-3.934814 9.284897-6.068934 14.690042-6.068934 3.148667 0 6.33812 0.725988 9.27878 2.196318l238.19239 119.05286c1.179731 0.578139 1.986271 1.573314 3.000819 2.341107 0.768813 0.559786 1.678337 0.867719 2.384952 1.574334L882.746385 605.606827c0.042825 0.043845 0.104004 0.043845 0.146829 0.08667 0.043845 0.037727 0.062198 0.099925 0.104004 0.141731l68.442726 68.447824c17.444106 17.419634 27.078742 40.580896 27.078742 65.208408 0 24.631591-9.635656 47.77042-27.078742 65.214526l-18.040599 18.021225c-17.401281 17.445125-40.545208 27.016543-65.171701 27.016543-24.631591 0-47.750027-9.572438-65.170681-27.016543L281.849558 301.523885C280.976741 300.693893 280.563785 299.593695 279.899995 298.663778L279.899995 298.663778zM302.171105 251.847746l78.42812-78.408747-156.837886-78.409766L302.171105 251.847746 302.171105 251.847746zM832.36873 793.373639c19.184642 19.165268 52.511775 19.202995 71.696416 0l18.045697-17.998793c9.586713-9.573457 14.893971-22.333309 14.893971-35.859934 0-13.551097-5.307258-26.291575-14.893971-35.879307l-53.905631-53.905631-89.742113 89.760467L832.36873 793.373639 832.36873 793.373639zM749.132978 710.137887l89.742113-89.761486L415.609794 197.09377l-89.760467 89.784938L749.132978 710.137887 749.132978 710.137887zM749.132978 710.137887"  horiz-adv-x="1024" />

    
    <glyph glyph-name="rijunpeisongjian" unicode="&#58921;" d="M760.870114 510.283148c-5.154393 7.704472-13.808494 12.335956-23.066345 12.335956l-27.724435 0c-15.33015 0-27.723412-12.393261-27.723412-27.723412l0-166.342516c0-15.33015 12.393261-27.724435 27.723412-27.724435l110.895693 0c15.33015 0 27.723412 12.394285 27.723412 27.724435l0 41.586141c0 5.460362-1.636267 10.840906-4.657067 15.387455L760.870114 510.283148zM820.97605 328.552154l-110.895693 0L710.080358 494.895693l27.724435 0 83.171258-124.757398L820.97605 328.552154zM945.621908 402.408255l-110.895693 166.342516c-15.467273 23.203468-41.364083 37.038568-69.199035 37.038568L654.632511 605.789339l0 55.447846c0 45.857421-37.318954 83.171258-83.171258 83.171258L155.603941 744.408443c-45.853327 0-83.171258-37.318954-83.171258-83.171258l0-304.96162c0-45.853327 37.318954-83.171258 83.171258-83.171258l0-83.171258c0-45.853327 37.318954-83.171258 83.171258-83.171258l31.658024 0c12.393261-47.711652 55.447846-83.171258 106.987686-83.171258 51.486628 0 94.54019 35.459606 106.934474 83.171258l146.461723 0c12.366655-47.711652 55.447846-83.171258 106.96108-83.171258 51.455929 0 94.536097 35.459606 106.902752 83.171258l31.742958 0c45.853327 0 83.171258 37.318954 83.171258 83.171258L959.595154 356.276588C959.595154 372.746702 954.773336 388.715395 945.621908 402.408255zM155.603941 328.552154c-15.303544 0-27.723412 12.393261-27.723412 27.723412L127.880529 661.238208c0 15.33015 12.419867 27.723412 27.723412 27.723412l415.857313 0c15.33015 0 27.724435-12.393261 27.724435-27.723412l0-304.96162c0-15.33015-12.394285-27.723412-27.724435-27.723412L155.603941 328.553177zM377.420909 79.03838c-30.633694 0-55.447846 24.840758-55.447846 55.447846s24.814152 55.447846 55.447846 55.447846c30.607088 0 55.447846-24.840758 55.447846-55.447846S408.001391 79.03838 377.420909 79.03838zM737.803769 79.03838c-30.633694 0-55.447846 24.840758-55.447846 55.447846s24.814152 55.447846 55.447846 55.447846c30.607088 0 55.447846-24.840758 55.447846-55.447846S768.410857 79.03838 737.803769 79.03838zM904.147308 189.933049c0-15.33015-12.393261-27.723412-27.723412-27.723412l-31.689746 0c-12.389168 47.711652-55.447846 83.171258-106.929358 83.171258-51.53984 0-94.593402-35.459606-106.987686-83.171258l-146.435117 0c-12.393261 47.711652-55.447846 83.171258-106.929358 83.171258-51.53984 0-94.593402-35.459606-106.987686-83.171258l-31.689746 0c-15.303544 0-27.723412 12.393261-27.723412 27.723412l0 83.171258 360.409466 0c45.853327 0 83.171258 37.31793 83.171258 83.171258L654.632511 550.343539l110.894669 0c9.257851 0 17.911952-4.631484 23.066345-12.335956l110.895693-166.342516c3.0208-4.546549 4.657067-9.927093 4.657067-15.387455L904.146285 189.933049z"  horiz-adv-x="1024" />

    
    <glyph glyph-name="yonghuguanli" unicode="&#58914;" d="M716.404102 501.043209c0-12.430212 10.081285-22.609431 22.511058-22.609431l252.031303 0c12.430712 0 22.511997 10.179238 22.511997 22.609431 0 12.430252-10.081285 22.609471-22.511997 22.609471L738.91518 523.652679C726.485387 523.652699 716.404102 513.473461 716.404102 501.043209L716.404102 501.043209 716.404102 501.043209zM986.836229 430.22982l-297.739932 0c-14.730253 0-26.62235-10.179238-26.62235-22.609431 0-12.430252 11.892097-22.609471 26.62235-22.609471l297.739932 0c14.681226 0 26.62227 10.179238 26.62227 22.609471C1013.458479 420.050602 1001.517435 430.22982 986.836229 430.22982L986.836229 430.22982 986.836229 430.22982zM990.946482 336.807001 738.91518 336.807001c-12.429773 0-22.511058-10.179238-22.511058-22.60999 0-12.429693 10.081285-22.608931 22.511058-22.608931l252.031303 0c12.430712 0 22.511997 10.179238 22.511997 22.608931C1013.458479 326.627762 1003.377194 336.807001 990.946482 336.807001L990.946482 336.807001 990.946482 336.807001zM494.347816-64.535009l-179.089857 0c-169.864472 0-304.052712 0-304.052712 88.088396l0 17.618215c0 165.117191 136.41525 299.402865 304.052712 299.402865l179.089857 0c167.636462 0 304.076696-134.285674 304.076696-299.402865l0-17.618215C798.375565-64.535009 657.482331-64.535009 494.347816-64.535009L494.347816-64.535009 494.347816-64.535009 494.347816-64.535009zM313.617551 290.951471c-141.014172 0-255.774345-112.65502-255.774345-251.14996l0-17.912076c0-35.920106 147.81768-35.920106 255.774345-35.920106l182.344231 0c89.385537 0 255.775804 0 255.775804 35.920106l0 17.912076c0 138.49492-114.760632 251.14996-255.775804 251.14996L313.617551 290.951471 313.617551 290.951471 313.617551 290.951471 313.617551 290.951471zM395.833869 358.290715c-133.086467 0-241.31297 106.708971-241.31297 237.863249S262.747401 833.969245 395.833869 833.969245c133.136913 0 241.338952-106.685028 241.338952-237.815301C637.172821 464.999686 528.921835 358.290715 395.833869 358.290715L395.833869 358.290715 395.833869 358.290715 395.833869 358.290715zM204.217345 596.864002c0-103.676547 85.984303-188.045905 191.616524-188.045905 105.682167 0 191.66701 84.345854 191.66701 188.045905 0 103.723475-85.984822 188.045905-191.66701 188.045905C290.178143 784.909887 204.217345 700.563994 204.217345 596.864002L204.217345 596.864002 204.217345 596.864002 204.217345 596.864002z"  horiz-adv-x="1024" />

    
    <glyph glyph-name="tihuodingdan" unicode="&#59025;" d="M972.8 0 51.2 0C23.466667 0 0 23.466667 0 51.2L0 716.8C0 744.533333 23.466667 768 51.2 768l128 0 51.2 0 563.2 0 51.2 0 128 0C1000.533333 768 1024 744.533333 1024 716.8l0-665.6C1024 23.466667 1000.533333 0 972.8 0zM972.8 691.2c0 14.933333-10.666667 25.6-25.6 25.6l-102.4 0-51.2 0L230.4 716.8 179.2 716.8 76.8 716.8c-14.933333 0-25.6-10.666667-25.6-25.6l0-614.4c0-14.933333 10.666667-25.6 25.6-25.6l870.4 0c14.933333 0 25.6 10.666667 25.6 25.6L972.8 691.2zM512 332.8c-155.733333 0-281.6 125.866667-281.6 281.6 0 14.933333 10.666667 25.6 25.6 25.6s25.6-10.666667 25.6-25.6C281.6 486.4 384 384 512 384s230.4 102.4 230.4 230.4c0 14.933333 10.666667 25.6 25.6 25.6s25.6-10.666667 25.6-25.6C793.6 458.666667 667.733333 332.8 512 332.8z"  horiz-adv-x="1024" />

    
    <glyph glyph-name="dingdanliebiao1" unicode="&#58916;" d="M596.21376 192.33792l-313.25696 0c-4.05504 0-7.54176-1.59744-10.43968-4.7872-2.90304-3.18976-4.352-6.81472-4.352-10.87488s1.44896-7.54176 4.352-10.43968c2.89792-2.90304 6.37952-4.352 10.43968-4.352l313.25696 0c4.06528 0 7.54176 1.44896 10.4448 4.352 2.90304 2.89792 4.352 6.3744 4.352 10.43968s-1.44896 7.68512-4.352 10.87488C603.75552 190.74048 600.27392 192.33792 596.21376 192.33792zM596.21376 280.21248l-313.25696 0c-4.05504 0-7.54176-1.59232-10.43968-4.7872-2.90304-3.18976-4.352-6.81472-4.352-10.87488s1.44896-7.54176 4.352-10.4448c2.89792-2.89792 6.37952-4.352 10.43968-4.352l313.25696 0c4.06528 0 7.54176 1.45408 10.4448 4.352 2.90304 2.90304 4.352 6.37952 4.352 10.4448s-1.44896 7.68512-4.352 10.87488C603.75552 278.62016 600.27392 280.21248 596.21376 280.21248zM282.9568 367.22688c-4.05504 0-7.54176-1.44896-10.43968-4.352-2.90304-2.89792-4.352-6.37952-4.352-10.43456 0-4.06528 1.44896-7.54176 4.352-10.4448 2.89792-2.89792 6.37952-4.352 10.43968-4.352l313.25696 0c4.06528 0 7.54176 1.45408 10.4448 4.352 2.90304 2.90304 4.352 6.37952 4.352 10.4448 0 4.06016-1.44896 7.54176-4.352 10.43456-2.90304 2.90304-6.37952 4.352-10.4448 4.352L282.9568 367.22688zM894.88384 630.21568l-187.9552 187.94496c-5.80096 5.80096-13.05088 8.69888-21.75488 8.69888l-268.8768 0c-8.12032 0-15.22688-2.90304-21.31968-8.69888-6.08768-5.80096-9.13408-13.05088-9.13408-21.75488l0-114.19648-175.10912 0c-8.12032 0-15.22688-2.90304-21.31968-8.69888-6.08768-5.80096-9.13408-13.05088-9.13408-21.75488l0-645.632c0-8.12032 3.0464-15.22688 9.13408-21.31456 6.0928-6.0928 13.19936-9.1392 21.31968-9.1392L622.08-24.33024l0 30.45376-411.34592 0 0 645.632 261.91872 0c-5.2224-2.90304-7.82848-7.24992-7.82848-13.05088l0-174.89408c0-4.06016 1.44896-7.69024 4.352-10.87488 2.89792-3.18976 6.37952-4.78208 10.43968-4.78208l174.90432 0c6.37952 0 11.02336 2.89792 13.92128 8.69888l0-248.07424 30.45888 0L698.90048 306.5344l102.88128 0c4.06016 0 7.54176 1.44896 10.4448 4.352 2.90304 2.89792 4.352 6.3744 4.352 10.43456 0 4.06528-1.44896 7.69024-4.352 10.87488-2.90304 3.18976-6.38464 4.79232-10.4448 4.79232l-102.88128 0 0 57.4208 105.05728 0c4.06016 0 7.54176 1.45408 10.4448 4.352 2.90304 2.90304 4.352 6.38464 4.352 10.4448 0 4.06016-1.44896 7.68512-4.352 10.87488-2.90304 3.18976-6.38464 4.78208-10.4448 4.78208l-105.05728 0 0 38.94784c0 6.76864-2.22208 12.928-6.65088 18.4832l108.44672 0c4.06016 0 7.54176 1.45408 10.4448 4.352 2.90304 2.90304 4.352 6.37952 4.352 10.4448 0 4.06016-1.44896 7.54176-4.352 10.43968-2.90304 2.90304-6.37952 4.352-10.4448 4.352l-136.28416 0 0.0256-1.42336-163.06176 163.05664c-5.80096 5.80096-13.05088 8.69888-21.75488 8.69888l-63.31392 0 0 114.19648 261.91872 0c-5.2224-2.90304-7.82848-7.24992-7.82848-13.05088l0-174.89408c0-4.06016 1.44896-7.69024 4.352-10.87488 2.89792-3.18976 6.37952-4.78208 10.43968-4.78208l174.90432 0c6.37952 0 11.02336 2.89792 13.92128 8.69888l0-439.62368 0-42.79296-176.5632 0 0 70.54336L591.36 89.8048l106.07616-99.82464 0 70.54336 176.5632 0 0-0.00512c0 0 15.22688 2.89792 21.31968 8.99072 6.0928 6.08768 9.1392 13.19936 9.1392 21.31456L904.45824 608.4608C904.45824 616.58624 901.26848 623.83616 894.88384 630.21568zM495.27808 636.96384l157.49632-158.35648-157.49632 0L495.27808 636.96384zM700.84096 623.2576l0 158.35648 157.49632-158.35648L700.84096 623.2576z"  horiz-adv-x="1024" />

    
    <glyph glyph-name="icon2-copy" unicode="&#58904;" d="M269.387 400.637c-15.102 0-27.344-12.243-27.344-27.344s12.242-27.343 27.344-27.343c15.101 0 27.343 12.242 27.343 27.343s-12.242 27.344-27.343 27.344zM269.387 546.467c-15.102 0-27.344-12.242-27.344-27.343 0-15.101 12.242-27.344 27.344-27.344 15.101 0 27.343 12.243 27.343 27.344-0.001 15.101-12.242 27.343-27.343 27.343zM269.387 108.975c-15.102 0-27.344-12.242-27.344-27.343s12.242-27.344 27.344-27.344c15.101 0 27.343 12.243 27.343 27.344s-12.242 27.343-27.343 27.343zM269.387 254.807c-15.102 0-27.344-12.243-27.344-27.344s12.242-27.343 27.344-27.343c15.101 0 27.343 12.242 27.343 27.343-0.001 15.101-12.242 27.344-27.343 27.344zM269.387 692.299c-15.102 0-27.344-12.242-27.344-27.343 0-15.102 12.242-27.344 27.344-27.344 15.101 0 27.343 12.242 27.343 27.344-0.001 15.101-12.242 27.343-27.343 27.343zM351.416 54.289h328.119v36.458h-328.119v-36.458zM766.082 882.716c-19.079 6.337-38.307 10.1-50.088 10.1h-565.095c-30.202 0-54.687-24.484-54.687-54.687v-911.443c0-30.202 24.484-54.687 54.687-54.687h619.782c30.202 0 54.687 24.484 54.687 54.687l-0 529.679c65.71 42.123 109.373 115.631 109.373 199.476-0.001 107.114-71.104 197.535-168.658 226.875zM788.909-73.313c0-10.067-8.161-18.229-18.228-18.229h-619.782c-10.067 0-18.228 8.162-18.228 18.229l-0 911.443c0 10.067 8.161 18.229 18.228 18.229l420.98-0c-61.802-38.887-104.297-105.382-110.169-182.29l-110.294 0v-36.457h110.294c3.061-40.093 16.042-77.338 36.578-109.373h-146.872v-36.458h175.595c43.119-44.869 103.611-72.916 170.754-72.916 32.308 0 63.080 6.514 91.144 18.221l0-510.4zM697.765 455.323c-110.743 0-200.518 89.775-200.518 200.518s89.775 200.518 200.518 200.518 200.518-89.775 200.518-200.518-89.775-200.518-200.518-200.518zM351.416 345.951h328.119v36.457l-328.119 0v-36.457zM351.416 200.12h328.119v36.457l-328.119 0v-36.457zM570.163 637.612h255.204v36.457l-255.204-0v-36.457z"  horiz-adv-x="1024" />

    
    </font>
</defs>
</svg>
